<svg version="1.1" id="Layer_1" xmlns="http://www.w3.org/2000/svg" xmlns:xlink="http://www.w3.org/1999/xlink" x="0px" y="0px" viewBox="0 0 1200 1200" enable-background="new 0 0 1200 1200" xml:space="preserve">
<path fill="#808285" d="M135.422,766.386l-39.165-44.664L50,762.281l86.575,98.734l181.718-217.712l-47.235-39.423L135.422,766.386z&#10;&#9; M135.422,410.482l-39.165-44.664L50,406.378l86.575,98.734L318.293,287.4l-47.235-39.423L135.422,410.482z M1133.831,245.349&#10;&#9;L964.997,140.683c-15.476-9.596-35.71-5.377-46.065,9.607L562.379,672.185l0.699,0.43l0.711,0.437l271.687,168.422l0.699,0.438&#10;&#9;l0.703,0.439l308.842-551.466C1154.541,274.947,1149.316,254.946,1133.831,245.349z M803.538,898.488l-276.603-171.49l-0.711-0.43&#10;&#9;l-0.699-0.438l-44.106,64.554c-2.876,4.638-2.194,10.611,1.663,14.516c44.14,44.826,57.564,111.771,36.122,169.672l-44.029,86.037&#10;&#9;c-0.707,1.345,0.18,3.068,1.517,2.951l73.88,0.59c0.523-0.045,0.994-0.384,1.273-0.911l26.723-40.742&#10;&#9;c41.848-50.236,111.579-70.91,174.458-50.286c5.22,1.705,10.869-0.341,13.766-5.008l38.157-68.15l-0.699-0.429L803.538,898.488z" style="fill: rgb(242, 126, 49);"/>
</svg>