<?xml version="1.0" encoding="utf-8"?>
<!-- Generator: Adobe Illustrator 27.5.0, SVG Export Plug-In . SVG Version: 6.00 Build 0)  -->
<svg version="1.1" id="Capa_1" xmlns="http://www.w3.org/2000/svg" xmlns:xlink="http://www.w3.org/1999/xlink" x="0px" y="0px"
	 viewBox="0 0 154 128.5" style="enable-background:new 0 0 154 128.5;" xml:space="preserve">
<style type="text/css">
	.st0{fill:#fff;stroke:#fff;stroke-miterlimit:10;}
	.st1{fill:none;stroke:#fff;stroke-width:2;stroke-miterlimit:10;}
	.st2{fill:#fff;}
	.st3{font-family:'CalistoMT';}
	.st4{font-size:3.1946px;}
	.st5{opacity:0.46;fill:none;stroke:#fff;stroke-width:2;stroke-miterlimit:10;}
	.st6{fill:none;stroke:#fff;stroke-width:2;stroke-miterlimit:10;}
	.st7{fill:none;stroke:#fff;stroke-miterlimit:10;}
	.st8{fill:#fff;stroke:#fff;stroke-miterlimit:10;}
	.st9{fill:#fff;stroke:#fff;stroke-width:0.75;stroke-miterlimit:10;}
	.st10{fill:none;stroke:#fff;stroke-width:0.75;stroke-miterlimit:10;}
	.st11{fill:none;stroke:#fff;stroke-width:0.5;stroke-miterlimit:10;}
</style>
<path class="st0" d="M108.12,7.84c0,0-3.32-3.48-8.95-1.45c0,0,2.92,1.29,4.47,1.5C104.79,8.05,107.53,8.1,108.12,7.84z"/>
<path class="st0" d="M106.6,4.7c0,0-0.84-3.31-4.74-3.33c0,0,1.29,1.66,2.13,2.21C104.6,3.99,106.18,4.73,106.6,4.7z"/>
<path class="st0" d="M112.39,8.15c0,0,0.58-3.37-2.98-4.97c0,0,0.5,2.04,1.04,2.89C110.86,6.69,111.99,8,112.39,8.15z"/>
<path class="st0" d="M117.81,12.55c0,0,1.1-4.56-3.58-6.31c0,0,0.5,2.67,1.15,3.74C115.86,10.77,117.28,12.4,117.81,12.55z"/>
<path class="st0" d="M112.45,12.23c0,0-2.63-3.7-7.77-2.12c0,0,2.47,1.5,3.82,1.83C109.49,12.18,111.9,12.44,112.45,12.23z"/>
<path class="st0" d="M117.19,17.81c0,0-1.84-3.82-6.91-3.31c0,0,2.05,1.79,3.26,2.34C114.43,17.23,116.64,17.9,117.19,17.81z"/>
<path class="st0" d="M122.11,18.07c0,0,1.82-4.28-2.47-6.85c0,0,0.05,2.72,0.51,3.88C120.49,15.97,121.61,17.83,122.11,18.07z"/>
<path class="st0" d="M126.85,24.48c0,0,2.22-4.22-1.89-7.54c0,0-0.19,2.85,0.18,4.14C125.41,22.04,126.37,24.16,126.85,24.48z"/>
<path class="st0" d="M121.41,23.42c0,0-1.53-4.51-6.77-3.82c0,0,1.94,2.1,3.13,2.72C118.64,22.78,120.84,23.54,121.41,23.42z"/>
<path class="st0" d="M130.28,30.72c0,0,2.47-3.28-0.44-6.99c0,0-0.58,2.47-0.48,3.68C129.45,28.3,129.93,30.35,130.28,30.72z"/>
<path class="st0" d="M125.01,30.34c0,0-1.16-5.58-7.5-5.56c0,0,2,2.78,3.32,3.71C121.81,29.16,124.32,30.4,125.01,30.34z"/>
<path class="st0" d="M133.51,38.54c0.43-0.57,1.53-2.19,1.59-4.55c0.05-1.99-0.67-3.47-1.03-4.1c-0.25,0.35-0.57,0.86-0.84,1.53
	c-0.43,1.06-0.49,1.95-0.52,2.47C132.58,35.88,133.13,37.58,133.51,38.54z"/>
<path class="st0" d="M127.69,38.4c-0.08-0.53-0.55-3.51-3.24-5.35c-1.64-1.12-3.31-1.27-4.06-1.29c0.19,0.49,0.51,1.16,1.02,1.88
	c0.42,0.6,0.98,1.23,2.12,2.13C124.45,36.5,125.82,37.47,127.69,38.4z"/>
<path class="st0" d="M135.53,48.1c0.48-0.47,1.76-1.84,2.36-4.2c0.51-2,0.28-3.66,0.13-4.39c-0.29,0.29-0.67,0.73-1.04,1.34
	c-0.6,0.97-0.86,1.85-1.01,2.37C135.41,45.19,135.44,47.04,135.53,48.1z"/>
<path class="st0" d="M129.6,48.88c-0.02-0.98-0.18-3.5-1.93-6c-1.5-2.14-3.39-3.17-4.29-3.59c0.04,0.53,0.15,1.28,0.43,2.14
	c0.23,0.69,0.48,1.19,0.64,1.52c0.09,0.18,0.44,1.07,1.28,2.02C127.27,46.68,128.92,48.24,129.6,48.88z"/>
<path class="st0" d="M135.92,58.73c1.09-0.99,3.21-3.2,4.18-6.69c0.46-1.68,0.53-3.17,0.48-4.29c-1.09,0.69-1.82,1.43-2.28,1.97
	c-0.49,0.58-0.81,1.08-0.94,1.31c0,0-0.48,0.8-0.83,1.78C135.75,55.03,135.91,58.54,135.92,58.73z"/>
<path class="st0" d="M129.56,58.24c0.17-0.77,0.76-3.8-0.97-6.89c-1.3-2.32-3.21-3.44-4.02-3.86c-0.21,0.62-0.46,1.61-0.3,2.8
	c0.1,0.79,0.38,1.42,0.94,2.67c0.63,1.4,0.94,2.1,1.45,2.79C127.13,56.37,128.01,57.38,129.56,58.24z"/>
<path class="st0" d="M135.3,69.4c1.2-0.86,3.57-2.8,4.93-6.16c0.66-1.61,0.9-3.08,0.98-4.2c-1.16,0.56-1.98,1.21-2.49,1.69
	c-0.56,0.51-0.93,0.98-1.09,1.19c0,0-0.57,0.74-1.03,1.67C135.56,65.71,135.31,69.22,135.3,69.4z"/>
<path class="st0" d="M127.89,70.3c0.44-1.48,1.35-5.32-0.26-9.62c-0.78-2.1-1.92-3.64-2.8-4.63c-0.36,1.43-0.54,2.63-0.62,3.52
	c-0.11,1.11-0.08,1.73-0.08,1.96c0,0,0.05,1.14,0.36,2.36C125.2,66.69,127.76,70.12,127.89,70.3z"/>
<path class="st0" d="M132.04,79.54c1.52-0.81,3.91-2.33,6.08-4.97c1.78-2.17,2.77-4.3,3.31-5.79c-0.79,0.26-1.86,0.71-3,1.45
	c-1.05,0.68-1.72,1.34-2.27,1.87c-1.02,1-2.23,2.18-3.13,4.09C132.69,76.92,132.25,78.05,132.04,79.54z"/>
<path class="st0" d="M123.22,82.51c0.71-1.05,2.84-4.52,2.28-9.09c-0.28-2.31-1.14-4.07-1.79-5.15c-0.2,0.94-0.45,1.93-0.75,2.95
	c-0.18,0.63-0.38,1.23-0.57,1.81c0,0-0.25,1.08-0.31,2.33C121.93,78.21,123.16,82.29,123.22,82.51z"/>
<path class="st0" d="M126.79,89.08c1.42,0.02,5.96-0.09,9.16-3.41c1.62-1.67,2.31-3.56,2.63-4.83c-0.73-0.03-1.99,0.02-3.35,0.66
	c-0.65,0.31-1.17,0.67-1.55,1c0.24-0.17,0.53-0.37,0.51-0.39c-0.03-0.05-1.63,0.83-2.64,1.52C130.4,84.42,128.45,86.02,126.79,89.08
	z"/>
<path class="st0" d="M115.71,93.23c0.89-0.96,3.26-3.75,3.86-8.11c0.55-4.02-0.7-7.13-1.27-8.34c-0.43,0.72-0.75,1.35-0.96,1.82
	c-0.33,0.71-0.53,1.28-0.75,1.88c-0.17,0.46-0.35,0.98-0.59,1.77c-0.27,0.86-0.6,2.01-0.96,3.43c-0.03,1.09,0,2.3,0.11,3.6
	C115.26,90.74,115.47,92.06,115.71,93.23z"/>
<path class="st0" d="M121.35,98.06c1.74-0.11,4.72-0.53,7.98-2.2c3.3-1.68,5.4-3.88,6.5-5.23c-1.88-0.32-3.35-0.12-4.25,0.09
	c-1.25,0.28-2.18,0.73-3.32,1.29c-0.7,0.34-1.78,0.87-2.89,1.66C124.37,94.38,122.78,95.73,121.35,98.06z"/>
<path class="st0" d="M107.75,102.5c1.11-1.34,2.86-3.79,3.89-7.31c1.04-3.55,0.89-6.59,0.67-8.32c-1.52,1.14-2.38,2.35-2.86,3.15
	c-0.65,1.1-0.97,2.09-1.35,3.3c-0.23,0.74-0.6,1.89-0.78,3.24C107.15,97.79,107.04,99.87,107.75,102.5z"/>
<path class="st0" d="M113.63,106.29c1.73,0.16,4.74,0.2,8.23-0.94c3.52-1.16,5.93-3,7.23-4.17c-1.8-0.6-3.29-0.63-4.22-0.57
	c-1.28,0.08-2.27,0.39-3.48,0.76c-0.74,0.23-1.9,0.58-3.11,1.2C117.17,103.12,115.39,104.21,113.63,106.29z"/>
<path class="st0" d="M92.49,110.73c1.44-0.44,4.9-1.72,7.81-5.12c3.12-3.65,3.75-7.57,3.91-9.05c-1.6,1.18-2.93,2.08-3.86,2.68
	c-1.62,1.06-2.33,1.43-3.31,2.36c-1.12,1.07-1.77,2.09-2.18,2.74C94.11,105.55,93,107.69,92.49,110.73z"/>
<path class="st0" d="M74.82,113.71c1.5,0.19,5.17,0.46,9.23-1.43c4.35-2.03,6.55-5.34,7.31-6.62c-1.94,0.41-3.53,0.68-4.62,0.84
	c-1.91,0.29-2.72,0.34-3.99,0.78c-1.47,0.51-2.48,1.17-3.12,1.6C78.44,109.67,76.54,111.15,74.82,113.71z"/>
<path class="st0" d="M101.59,113.91c3.92,0.97,7.07,0.99,9.12,0.86c1.83-0.12,2.99-0.38,3.44-0.49c2.61-0.63,4.58-1.71,5.84-2.53
	c-0.63-0.26-1.46-0.57-2.44-0.84c-0.6-0.17-1.57-0.43-2.84-0.59c-1.23-0.15-2.14-0.12-3.3-0.09c-0.64,0.02-2.31,0.08-3.49,0.28
	C106.79,110.71,104.38,111.34,101.59,113.91z"/>
<path class="st0" d="M89.34,118.68c3.66,1.71,6.74,2.35,8.78,2.62c1.82,0.24,3.01,0.21,3.47,0.19c2.68-0.11,4.82-0.78,6.22-1.35
	c-0.57-0.38-1.32-0.84-2.23-1.3c-0.55-0.28-1.45-0.73-2.67-1.13c-1.17-0.39-2.07-0.54-3.22-0.73c-0.63-0.1-2.28-0.37-3.48-0.41
	C95.06,116.56,92.58,116.71,89.34,118.68z"/>
<path class="st0" d="M75.96,121.32c3.28,2.35,6.2,3.55,8.15,4.19c1.7,0.56,2.97,0.76,3.37,0.82c2.59,0.41,4.78,0.27,6.28,0.07
	c-0.43-0.55-1.05-1.24-1.87-1.93c-1.11-0.93-2.11-1.45-2.42-1.6c-0.54-0.27-1.32-0.61-3.32-1.07c-2.07-0.48-3.29-0.77-5.04-0.86
	C79.84,120.87,78.06,120.9,75.96,121.32z"/>
<path class="st1" d="M32.96,9.18c0.35-0.29-14.32,11.95-19.89,29.76c-1.39,4.46-6.21,21.95,1.87,41.56
	c1.25,3.03,11.85,27.58,39,35.57c24.45,7.2,49.8-2.71,64.56-19.92c16.13-18.8,15.07-40.93,14.79-44.04
	c-2.54-27.33-24.74-45.53-23.62-44.36"/>
<path class="st0" d="M35.76,8.08c0,0,3.32-3.48,8.95-1.45c0,0-2.92,1.29-4.47,1.5C39.09,8.29,36.35,8.34,35.76,8.08z"/>
<path class="st0" d="M37.28,4.94c0,0,0.84-3.31,4.74-3.33c0,0-1.29,1.66-2.13,2.21C39.28,4.23,37.71,4.97,37.28,4.94z"/>
<path class="st0" d="M31.49,8.39c0,0-0.58-3.37,2.98-4.97c0,0-0.5,2.04-1.04,2.89C33.02,6.93,31.89,8.24,31.49,8.39z"/>
<path class="st0" d="M26.07,12.79c0,0-1.1-4.56,3.58-6.31c0,0-0.5,2.67-1.15,3.74C28.02,11.01,26.6,12.64,26.07,12.79z"/>
<path class="st0" d="M31.44,12.47c0,0,2.63-3.7,7.77-2.12c0,0-2.47,1.5-3.82,1.83C34.39,12.42,31.98,12.68,31.44,12.47z"/>
<path class="st0" d="M26.69,18.05c0,0,1.84-3.82,6.91-3.31c0,0-2.05,1.79-3.26,2.34C29.45,17.47,27.24,18.14,26.69,18.05z"/>
<path class="st0" d="M21.77,18.32c0,0-1.82-4.28,2.47-6.85c0,0-0.05,2.72-0.51,3.88C23.39,16.21,22.27,18.08,21.77,18.32z"/>
<path class="st0" d="M17.03,24.72c0,0-2.22-4.22,1.89-7.54c0,0,0.19,2.85-0.18,4.14C18.48,22.28,17.51,24.4,17.03,24.72z"/>
<path class="st0" d="M22.47,23.66c0,0,1.53-4.51,6.77-3.82c0,0-1.94,2.1-3.13,2.72C25.24,23.02,23.04,23.78,22.47,23.66z"/>
<path class="st0" d="M13.6,30.96c0,0-2.47-3.28,0.44-6.99c0,0,0.58,2.47,0.48,3.68C14.43,28.54,13.95,30.59,13.6,30.96z"/>
<path class="st0" d="M18.87,30.58c0,0,1.16-5.58,7.5-5.56c0,0-2,2.78-3.32,3.71C22.07,29.4,19.56,30.64,18.87,30.58z"/>
<path class="st0" d="M10.37,38.78c-0.43-0.57-1.53-2.19-1.59-4.55c-0.05-1.99,0.67-3.47,1.03-4.1c0.25,0.35,0.57,0.86,0.84,1.53
	c0.43,1.06,0.49,1.95,0.52,2.47C11.3,36.12,10.75,37.82,10.37,38.78z"/>
<path class="st0" d="M16.19,38.64c0.08-0.53,0.55-3.51,3.24-5.35c1.64-1.12,3.31-1.27,4.06-1.29c-0.19,0.49-0.51,1.16-1.02,1.88
	c-0.42,0.6-0.98,1.23-2.12,2.13C19.44,36.74,18.06,37.71,16.19,38.64z"/>
<path class="st0" d="M8.35,48.34c-0.48-0.47-1.76-1.84-2.36-4.2c-0.51-2-0.28-3.66-0.13-4.39c0.29,0.29,0.67,0.73,1.04,1.34
	c0.6,0.97,0.86,1.85,1.01,2.37C8.47,45.43,8.44,47.28,8.35,48.34z"/>
<path class="st0" d="M14.28,49.12c0.02-0.98,0.18-3.5,1.93-6c1.5-2.14,3.39-3.17,4.29-3.59c-0.04,0.53-0.15,1.28-0.43,2.14
	c-0.23,0.69-0.48,1.19-0.64,1.52c-0.09,0.18-0.44,1.07-1.28,2.02C16.61,46.92,14.96,48.49,14.28,49.12z"/>
<path class="st0" d="M7.96,58.97c-1.09-0.99-3.21-3.2-4.18-6.69c-0.46-1.68-0.53-3.17-0.48-4.29c1.09,0.69,1.82,1.43,2.28,1.97
	c0.49,0.58,0.81,1.08,0.94,1.31c0,0,0.48,0.8,0.83,1.78C8.13,55.27,7.97,58.78,7.96,58.97z"/>
<path class="st0" d="M14.32,58.48c-0.17-0.77-0.76-3.8,0.97-6.89c1.3-2.32,3.21-3.44,4.02-3.86c0.21,0.62,0.46,1.61,0.3,2.8
	c-0.1,0.79-0.38,1.42-0.94,2.67c-0.63,1.4-0.94,2.1-1.45,2.79C16.75,56.62,15.87,57.62,14.32,58.48z"/>
<path class="st0" d="M8.58,69.64c-1.2-0.86-3.57-2.8-4.93-6.16c-0.66-1.61-0.9-3.08-0.98-4.2c1.16,0.56,1.98,1.21,2.49,1.69
	c0.56,0.51,0.93,0.98,1.09,1.19c0,0,0.57,0.74,1.03,1.67C8.32,65.95,8.57,69.46,8.58,69.64z"/>
<path class="st0" d="M15.99,70.54c-0.44-1.48-1.35-5.32,0.26-9.62c0.78-2.1,1.92-3.64,2.8-4.63c0.36,1.43,0.54,2.63,0.62,3.52
	c0.11,1.11,0.08,1.73,0.08,1.96c0,0-0.05,1.14-0.36,2.36C18.68,66.93,16.13,70.37,15.99,70.54z"/>
<path class="st0" d="M11.84,79.78c-1.52-0.81-3.91-2.33-6.08-4.97c-1.78-2.17-2.77-4.3-3.31-5.79c0.79,0.26,1.86,0.71,3,1.45
	c1.05,0.68,1.72,1.34,2.27,1.87c1.02,1,2.23,2.18,3.13,4.09C11.19,77.16,11.63,78.29,11.84,79.78z"/>
<path class="st0" d="M20.66,82.75c-0.71-1.05-2.84-4.52-2.28-9.09c0.28-2.31,1.14-4.07,1.79-5.15c0.2,0.94,0.45,1.93,0.75,2.95
	c0.18,0.63,0.38,1.23,0.57,1.81c0,0,0.25,1.08,0.31,2.33C21.95,78.45,20.72,82.53,20.66,82.75z"/>
<path class="st0" d="M17.09,89.32c-1.42,0.02-5.96-0.09-9.16-3.41c-1.62-1.67-2.31-3.56-2.63-4.83c0.73-0.03,1.99,0.02,3.35,0.66
	c0.65,0.31,1.17,0.67,1.55,1c-0.24-0.17-0.53-0.37-0.51-0.39c0.03-0.05,1.63,0.83,2.64,1.52C13.48,84.66,15.43,86.26,17.09,89.32z"
	/>
<path class="st0" d="M28.17,93.47c-0.89-0.96-3.26-3.75-3.86-8.11c-0.55-4.02,0.7-7.13,1.27-8.34c0.43,0.72,0.75,1.35,0.96,1.82
	c0.33,0.71,0.53,1.28,0.75,1.88c0.17,0.46,0.35,0.98,0.59,1.77c0.27,0.86,0.6,2.01,0.96,3.43c0.03,1.09,0,2.3-0.11,3.6
	C28.62,90.98,28.41,92.3,28.17,93.47z"/>
<path class="st0" d="M22.53,98.3c-1.74-0.11-4.72-0.53-7.98-2.2c-3.3-1.68-5.4-3.88-6.5-5.23c1.88-0.32,3.35-0.12,4.25,0.09
	c1.25,0.28,2.18,0.73,3.32,1.29c0.7,0.34,1.78,0.87,2.89,1.66C19.51,94.62,21.11,95.97,22.53,98.3z"/>
<path class="st0" d="M36.13,102.74c-1.11-1.34-2.86-3.79-3.89-7.31c-1.04-3.55-0.89-6.59-0.67-8.32c1.52,1.14,2.38,2.35,2.86,3.15
	c0.65,1.1,0.97,2.09,1.35,3.3c0.23,0.74,0.6,1.89,0.78,3.24C36.73,98.03,36.84,100.11,36.13,102.74z"/>
<path class="st0" d="M30.26,106.53c-1.73,0.16-4.74,0.2-8.23-0.94c-3.52-1.16-5.93-3-7.23-4.17c1.8-0.6,3.29-0.63,4.22-0.57
	c1.28,0.08,2.27,0.39,3.48,0.76c0.74,0.23,1.9,0.58,3.11,1.2C26.71,103.36,28.49,104.45,30.26,106.53z"/>
<path class="st0" d="M51.39,110.97c-1.44-0.44-4.9-1.72-7.81-5.12c-3.12-3.65-3.75-7.57-3.91-9.05c1.6,1.18,2.93,2.08,3.86,2.68
	c1.62,1.06,2.33,1.43,3.31,2.36c1.12,1.07,1.77,2.09,2.18,2.74C49.77,105.79,50.88,107.93,51.39,110.97z"/>
<path class="st0" d="M69.06,113.95c-1.5,0.19-5.17,0.46-9.23-1.43c-4.35-2.03-6.55-5.34-7.31-6.62c1.94,0.41,3.53,0.68,4.62,0.84
	c1.91,0.29,2.72,0.34,3.99,0.78c1.47,0.51,2.48,1.17,3.12,1.6C65.44,109.91,67.34,111.39,69.06,113.95z"/>
<path class="st0" d="M42.29,114.15c-3.92,0.97-7.07,0.99-9.12,0.86c-1.83-0.12-2.99-0.38-3.44-0.49c-2.61-0.63-4.58-1.71-5.84-2.53
	c0.63-0.26,1.46-0.57,2.44-0.84c0.6-0.17,1.57-0.43,2.84-0.59c1.23-0.15,2.14-0.12,3.3-0.09c0.64,0.02,2.31,0.08,3.49,0.28
	C37.09,110.95,39.5,111.58,42.29,114.15z"/>
<path class="st0" d="M54.54,118.92c-3.66,1.71-6.74,2.35-8.78,2.62c-1.82,0.24-3.01,0.21-3.47,0.19c-2.68-0.11-4.82-0.78-6.22-1.35
	c0.57-0.38,1.32-0.84,2.23-1.3c0.55-0.28,1.45-0.73,2.67-1.13c1.17-0.39,2.07-0.54,3.22-0.73c0.63-0.1,2.28-0.37,3.48-0.41
	C48.82,116.8,51.31,116.95,54.54,118.92z"/>
<path class="st0" d="M67.92,121.56c-3.28,2.35-6.2,3.55-8.15,4.19c-1.7,0.56-2.97,0.76-3.37,0.82c-2.59,0.41-4.78,0.27-6.28,0.07
	c0.43-0.55,1.05-1.24,1.87-1.93c1.11-0.93,2.11-1.45,2.42-1.6c0.54-0.27,1.32-0.61,3.32-1.07c2.07-0.48,3.29-0.77,5.04-0.86
	C64.04,121.11,65.82,121.14,67.92,121.56z"/>
<text transform="matrix(1.086 0 0 1 68.6446 74.9549)" class="st2 st3 st4">SENA</text>
<path class="st5" d="M65.52,42.71c-6.87-2.88-14.26,1.13-15.75,6.91c-1.49,5.78,3.04,12.86,10.45,13.66"/>
<path class="st5" d="M50.9,63.77c-6.83,4.1-14.99,14.4-12.05,19.29c0.6,0.99,2.65,1.29,8.04,1.93"/>
<ellipse class="st1" cx="73.18" cy="55.46" rx="11.41" ry="10.88"/>
<path class="st1" d="M64.77,66.88c-1.76,0.69-7.91,3.33-11.36,10.07c-1.98,3.86-2.26,7.48-2.25,9.54c5.49,1.05,10.3,1.56,14.14,1.82
	c6.39,0.43,10.86,0.16,19.79-0.37c2.6-0.15,6.15-0.42,10.53-1.67l0,0c0.06-2-0.13-5.59-2.04-9.43c-3.47-6.96-10.01-9.5-11.62-10.07"
	/>
<path class="st5" d="M80.63,42.88c7.16-3.12,14.76,0.91,16.3,6.45c1.55,5.58-2.94,13.01-10.75,13.96"/>
<path class="st5" d="M95.18,63.93c3.8,2.31,6.41,4.8,8.04,6.59c1.72,1.89,3.42,4.17,4.5,7.23c1.14,3.23,0.53,4.34,0.32,4.66
	c-0.66,1.02-1.92,1.35-4.1,1.93c-1.58,0.41-2.92,0.57-3.86,0.64"/>
<circle class="st6" cx="73.21" cy="70.4" r="0.74"/>
<polyline class="st7" points="65.89,76.17 71.4,76.17 68.26,81.67 "/>
<polyline class="st7" points="80.48,76.17 74.85,76.17 78.11,81.67 "/>
<polyline class="st7" points="69.91,83.08 73.17,78.3 76.42,83.08 "/>
<ellipse class="st6" cx="104.33" cy="58.6" rx="21.35" ry="20.52"/>
<rect x="90.86" y="45.85" class="st7" width="8.2" height="7.71"/>
<rect x="90.86" y="63.77" class="st7" width="8.2" height="8.2"/>
<rect x="109.5" y="45.85" class="st7" width="8.6" height="7.71"/>
<rect x="101.02" y="45.45" class="st8" width="1.77" height="1.77"/>
<rect x="103.23" y="45.45" class="st8" width="3.94" height="0.4"/>
<rect x="105.2" y="46.33" class="st8" width="1.97" height="0.6"/>
<rect x="102.31" y="47.58" class="st8" width="0.34" height="2.13"/>
<rect x="103.39" y="47.82" class="st8" width="2.37" height="0.4"/>
<rect x="105.2" y="48.64" class="st8" width="0.56" height="1.06"/>
<rect x="106.53" y="49.18" class="st8" width="0.64" height="2.14"/>
<rect x="101.02" y="50.83" class="st8" width="0.6" height="11.73"/>
<rect x="96.92" y="60.76" class="st8" width="6.31" height="0.48"/>
<rect x="90.38" y="55.82" class="st8" width="0.76" height="2.05"/>
<rect x="91.46" y="55.82" class="st8" width="3.25" height="0.51"/>
<rect x="94.27" y="56.7" class="st8" width="0.44" height="5.06"/>
<rect x="95.04" y="57.34" class="st8" width="1.57" height="1.89"/>
<rect x="97.17" y="58.29" class="st8" width="2.21" height="0.31"/>
<rect x="102.31" y="54.33" class="st8" width="2.02" height="3.01"/>
<rect x="103.71" y="51.48" class="st8" width="0.62" height="2.65"/>
<rect x="104.58" y="54.57" class="st8" width="1.61" height="1.76"/>
<rect x="106.19" y="52.96" class="st8" width="0.98" height="0.4"/>
<rect x="106.53" y="55.55" class="st8" width="5.87" height="0.77"/>
<rect x="109.02" y="56.84" class="st9" width="0.88" height="2.03"/>
<rect x="110.3" y="58.44" class="st9" width="2.09" height="0.43"/>
<rect x="111.99" y="56.54" class="st9" width="0.25" height="1.75"/>
<rect x="112.83" y="56.84" class="st9" width="1.41" height="1.01"/>
<rect x="114.74" y="58.29" class="st9" width="0.78" height="0.78"/>
<rect x="115.73" y="55.55" class="st9" width="2.61" height="0.77"/>
<rect x="117.03" y="56.84" class="st9" width="1.31" height="2.39"/>
<rect x="117.03" y="63.05" class="st9" width="1.06" height="0.72"/>
<rect x="115.73" y="60.6" class="st9" width="0.94" height="0.94"/>
<rect x="117.03" y="71.12" class="st9" width="1.38" height="1.38"/>
<rect x="114.74" y="68.39" class="st9" width="3.67" height="1.41"/>
<rect x="114.37" y="67.11" class="st9" width="0.76" height="0.76"/>
<rect x="116.2" y="66.14" class="st9" width="0.47" height="0.96"/>
<rect x="113.54" y="69.09" class="st9" width="0.46" height="3.41"/>
<rect x="110.63" y="69.09" class="st9" width="2.73" height="1.7"/>
<rect x="109.02" y="68.39" class="st9" width="1.85" height="0.96"/>
<rect x="106.53" y="69.8" class="st9" width="1.04" height="0.8"/>
<rect x="109.02" y="71.32" class="st9" width="1.12" height="0.88"/>
<rect x="111.99" y="65.98" class="st9" width="2.01" height="1.89"/>
<rect x="110.87" y="62.24" class="st9" width="4.66" height="2.05"/>
<rect x="113.2" y="64.69" class="st9" width="0.8" height="1.08"/>
<rect x="113.2" y="59.43" class="st9" width="0.57" height="2.33"/>
<rect x="111.99" y="59.43" class="st9" width="1" height="0.64"/>
<rect x="110.63" y="62.06" class="st9" width="3.14" height="0.5"/>
<rect x="108.25" y="60.6" class="st9" width="3.38" height="1.97"/>
<rect x="106.19" y="59.43" class="st9" width="1.39" height="1.17"/>
<rect x="102.31" y="63.41" class="st9" width="6.35" height="0.68"/>
<rect x="108.25" y="62.57" class="st9" width="0.4" height="0.7"/>
<rect x="105.2" y="62.06" class="st9" width="0.98" height="0.98"/>
<rect x="101.02" y="64.69" class="st9" width="0.96" height="0.68"/>
<rect x="102.41" y="65.98" class="st9" width="2.17" height="2.17"/>
<rect x="101.02" y="68.59" class="st9" width="0.96" height="3.38"/>
<rect x="102.31" y="71.32" class="st9" width="2.45" height="0.64"/>
<rect x="101.83" y="69.6" class="st9" width="1.67" height="1.2"/>
<rect x="103.71" y="64.29" class="st9" width="2.33" height="1.49"/>
<rect x="107.57" y="64.49" class="st9" width="3.05" height="1.65"/>
<rect x="105.2" y="65.98" class="st9" width="6.43" height="0.64"/>
<rect x="93.09" y="65.98" class="st9" width="3.52" height="3.52"/>
<rect x="92.67" y="47.82" class="st9" width="4.1" height="3.5"/>
<path class="st10" d="M116.49,46.84"/>
<path class="st11" d="M116.3,50.5c-0.34,1.01-1.33,1.74-2.5,1.74c-1.45,0-2.63-1.13-2.63-2.53s1.18-2.53,2.63-2.53
	c1.02,0,2.01,0.59,2.33,1.38"/>
<path class="st11" d="M116.34,48.42c-0.85,0.39-1.69,0.79-2.54,1.18c0.9,0.33,1.8,0.67,2.7,1"/>
<circle class="st11" cx="113.22" cy="48.12" r="0.1"/>
<line class="st6" x1="150.4" y1="98.97" x2="126.34" y2="78.15"/>
<path class="st6" d="M144.94,105.4c0.38,0.03,2.97,0.22,4.98-1.77c1.71-1.69,1.83-3.79,1.85-4.26"/>
<path class="st6" d="M144.59,104.08c-0.47-0.53-0.93-1.06-1.4-1.59c-6.49-7.36-12.98-14.73-19.47-22.09"/>
<path class="st6" d="M120.92,79.7c0.59-0.2,1.77-0.68,2.83-1.82c0.93-1.01,1.34-2.06,1.51-2.64"/>
<line class="st6" x1="120.55" y1="77.47" x2="117.72" y2="74.82"/>
<line class="st6" x1="123.24" y1="74.83" x2="120.55" y2="72.5"/>
<g>
	<g>
		<path class="st0" d="M49.13,27.04c0.36-0.13,0.71-0.26,1.07-0.39c0.16,0.4,0.38,0.71,0.64,0.92c0.26,0.22,0.61,0.35,1.04,0.42
			c0.43,0.06,0.9,0.04,1.39-0.08c0.44-0.1,0.81-0.26,1.11-0.46c0.31-0.2,0.52-0.43,0.64-0.69c0.12-0.26,0.15-0.51,0.09-0.77
			c-0.06-0.26-0.19-0.48-0.39-0.64c-0.2-0.16-0.51-0.27-0.91-0.32C53.55,25,52.99,24.99,52.12,25c-0.86,0.02-1.48,0-1.86-0.08
			c-0.48-0.09-0.87-0.26-1.17-0.51c-0.3-0.25-0.5-0.56-0.6-0.94c-0.12-0.42-0.1-0.84,0.07-1.28c0.16-0.44,0.48-0.82,0.94-1.14
			c0.46-0.32,1.01-0.56,1.64-0.72c0.69-0.17,1.33-0.21,1.91-0.13c0.58,0.08,1.05,0.29,1.41,0.62c0.37,0.33,0.61,0.74,0.73,1.23
			c-0.38,0.11-0.77,0.22-1.15,0.33c-0.18-0.52-0.48-0.87-0.9-1.06c-0.43-0.19-1-0.2-1.71-0.03c-0.74,0.18-1.25,0.44-1.52,0.77
			c-0.27,0.33-0.36,0.67-0.27,1.01c0.08,0.3,0.26,0.51,0.55,0.64c0.28,0.13,0.93,0.17,1.95,0.14c1.02-0.03,1.73,0,2.12,0.07
			c0.57,0.11,1.02,0.31,1.34,0.61c0.32,0.29,0.52,0.67,0.62,1.12c0.09,0.45,0.04,0.9-0.14,1.35c-0.18,0.45-0.5,0.84-0.94,1.17
			c-0.44,0.33-0.97,0.56-1.58,0.71c-0.77,0.19-1.45,0.24-2.03,0.16c-0.58-0.08-1.08-0.3-1.5-0.65
			C49.61,28.04,49.31,27.59,49.13,27.04z"/>
		<path class="st0" d="M58.42,27.71c-0.07-0.39-0.14-0.79-0.22-1.18c0.41-0.07,0.82-0.15,1.22-0.22c0.07,0.39,0.13,0.79,0.2,1.18
			C59.22,27.56,58.82,27.64,58.42,27.71z"/>
		<path class="st0" d="M61.8,27.15c-0.41-2.83-0.82-5.67-1.23-8.5c0.42-0.06,0.84-0.12,1.26-0.17c0.37,2.84,0.75,5.68,1.12,8.52
			C62.57,27.05,62.19,27.1,61.8,27.15z"/>
		<path class="st0" d="M65.15,26.74c-0.04-0.4-0.08-0.8-0.13-1.19c0.41-0.04,0.82-0.08,1.23-0.12c0.04,0.4,0.07,0.8,0.11,1.2
			C65.96,26.65,65.55,26.69,65.15,26.74z"/>
		<path class="st0" d="M68.33,26.45c-0.2-2.86-0.41-5.71-0.61-8.57c0.63-0.05,1.27-0.08,1.9-0.12c0.86,1.99,1.67,3.98,2.44,5.99
			c0.21,0.56,0.36,0.98,0.46,1.26c0.09-0.31,0.24-0.78,0.44-1.39c0.68-2.01,1.4-4,2.17-5.99c0.57,0,1.13,0.01,1.7,0.02
			c-0.06,2.86-0.12,5.73-0.17,8.59c-0.37-0.01-0.74-0.01-1.11-0.02c0.02-2.4,0.04-4.79,0.06-7.19c-0.93,2.39-1.8,4.79-2.6,7.2
			c-0.35,0.01-0.7,0.02-1.04,0.03c-0.92-2.41-1.9-4.81-2.96-7.19c0.14,2.43,0.29,4.87,0.43,7.3C69.07,26.4,68.7,26.43,68.33,26.45z"
			/>
		<path class="st0" d="M78.69,26.3c0.02-0.4,0.03-0.8,0.05-1.2c0.41,0.02,0.82,0.04,1.24,0.06c-0.02,0.4-0.04,0.8-0.07,1.2
			C79.51,26.34,79.1,26.32,78.69,26.3z"/>
		<path class="st0" d="M81.91,26.5c0.22-2.85,0.45-5.71,0.67-8.56c1.2,0.09,2.4,0.21,3.59,0.35c0.63,0.07,1.11,0.16,1.44,0.26
			c0.46,0.13,0.83,0.32,1.12,0.56c0.29,0.24,0.5,0.55,0.63,0.93c0.14,0.38,0.17,0.78,0.11,1.2c-0.11,0.72-0.45,1.29-1.02,1.72
			c-0.56,0.43-1.48,0.56-2.75,0.41c-0.77-0.09-1.54-0.17-2.32-0.24c-0.11,1.16-0.21,2.32-0.32,3.48
			C82.68,26.56,82.3,26.53,81.91,26.5z M83.47,22.11c0.79,0.07,1.57,0.15,2.36,0.24c0.78,0.09,1.35,0.03,1.71-0.2
			c0.36-0.23,0.58-0.58,0.65-1.08c0.05-0.36-0.01-0.67-0.17-0.95c-0.16-0.28-0.4-0.48-0.72-0.61c-0.2-0.08-0.59-0.15-1.15-0.22
			c-0.8-0.09-1.61-0.18-2.41-0.25C83.66,20.07,83.57,21.09,83.47,22.11z"/>
		<path class="st0" d="M90.17,27.52c0.07-0.39,0.13-0.79,0.2-1.18c0.41,0.07,0.82,0.14,1.22,0.22c-0.07,0.39-0.15,0.79-0.22,1.18
			C90.98,27.66,90.58,27.59,90.17,27.52z"/>
		<path class="st0" d="M93.52,25.34c0.38,0.04,0.75,0.09,1.13,0.14c-0.04,0.43,0.01,0.8,0.14,1.11c0.13,0.31,0.37,0.59,0.73,0.85
			c0.36,0.26,0.78,0.44,1.27,0.56c0.44,0.11,0.83,0.14,1.2,0.1c0.37-0.04,0.66-0.14,0.88-0.32c0.22-0.17,0.37-0.39,0.44-0.64
			c0.07-0.26,0.05-0.51-0.06-0.75c-0.11-0.24-0.33-0.47-0.67-0.7c-0.22-0.15-0.71-0.42-1.48-0.8c-0.78-0.38-1.31-0.68-1.61-0.92
			c-0.38-0.3-0.65-0.63-0.8-0.99c-0.15-0.36-0.18-0.73-0.1-1.11c0.09-0.42,0.3-0.79,0.65-1.11c0.34-0.31,0.8-0.51,1.35-0.58
			c0.56-0.08,1.16-0.04,1.79,0.12c0.69,0.17,1.28,0.42,1.76,0.76c0.47,0.34,0.8,0.74,0.97,1.2c0.17,0.46,0.2,0.94,0.09,1.43
			c-0.39-0.08-0.78-0.16-1.17-0.24c0.08-0.54-0.03-0.99-0.32-1.36c-0.29-0.36-0.8-0.64-1.51-0.81c-0.74-0.18-1.31-0.18-1.71-0.01
			c-0.39,0.17-0.63,0.43-0.7,0.78c-0.07,0.3,0,0.58,0.19,0.82c0.19,0.25,0.75,0.58,1.67,1.02c0.92,0.44,1.54,0.79,1.85,1.04
			c0.46,0.36,0.76,0.75,0.91,1.16c0.15,0.41,0.16,0.84,0.03,1.28c-0.13,0.44-0.38,0.82-0.75,1.13c-0.37,0.32-0.83,0.52-1.37,0.6
			c-0.54,0.09-1.12,0.06-1.73-0.09c-0.77-0.19-1.39-0.45-1.87-0.79c-0.48-0.34-0.82-0.76-1.03-1.27
			C93.48,26.44,93.42,25.91,93.52,25.34z"/>
	</g>
</g>
</svg>
