<?xml version="1.0" encoding="UTF-8" standalone="no"?>
<!-- Created with Inkscape (http://www.inkscape.org/) -->

<svg
   version="1.1"
   id="svg1"
   width="286.66666"
   height="310.66666"
   viewBox="0 0 286.66666 310.66666"
   sodipodi:docname="logoColegio.svg"
   inkscape:version="1.3 (0e150ed6c4, 2023-07-21)"
   xmlns:inkscape="http://www.inkscape.org/namespaces/inkscape"
   xmlns:sodipodi="http://sodipodi.sourceforge.net/DTD/sodipodi-0.dtd"
   xmlns:xlink="http://www.w3.org/1999/xlink"
   xmlns="http://www.w3.org/2000/svg"
   xmlns:svg="http://www.w3.org/2000/svg">
  <defs
     id="defs1">
    <inkscape:path-effect
       effect="bspline"
       id="path-effect55"
       is_visible="true"
       lpeversion="1.3"
       weight="33.333333"
       steps="2"
       helper_size="0"
       apply_no_weight="true"
       apply_with_weight="true"
       only_selected="false"
       uniform="false" />
    <inkscape:path-effect
       effect="bspline"
       id="path-effect54"
       is_visible="true"
       lpeversion="1.3"
       weight="33.333333"
       steps="2"
       helper_size="0"
       apply_no_weight="true"
       apply_with_weight="true"
       only_selected="false"
       uniform="false" />
    <inkscape:path-effect
       effect="spiro"
       id="path-effect53"
       is_visible="true"
       lpeversion="1" />
    <inkscape:path-effect
       effect="powerstroke"
       id="path-effect48"
       is_visible="true"
       lpeversion="1.3"
       scale_width="1"
       interpolator_type="CentripetalCatmullRom"
       interpolator_beta="0.75"
       start_linecap_type="round"
       end_linecap_type="round"
       offset_points="2.1537933,4.6506985"
       linejoin_type="spiro"
       miter_limit="4"
       not_jump="true"
       sort_points="true"
       message="&lt;b&gt;Ctrl + clic&lt;/b&gt; sobre un nodo existente y muévalo" />
    <inkscape:path-effect
       effect="simplify"
       id="path-effect47"
       is_visible="true"
       lpeversion="1.3"
       threshold="0.034285715"
       steps="1"
       smooth_angles="0"
       helper_size="0"
       simplify_individual_paths="false"
       simplify_just_coalesce="false"
       step="1" />
    <inkscape:path-effect
       effect="powerstroke"
       id="path-effect46"
       is_visible="true"
       lpeversion="1.3"
       scale_width="1"
       interpolator_type="CentripetalCatmullRom"
       interpolator_beta="0.75"
       start_linecap_type="round"
       end_linecap_type="round"
       offset_points="25.674085,4.6506985"
       linejoin_type="spiro"
       miter_limit="4"
       not_jump="true"
       sort_points="true"
       message="&lt;b&gt;Ctrl + clic&lt;/b&gt; sobre un nodo existente y muévalo" />
    <inkscape:path-effect
       effect="simplify"
       id="path-effect45"
       is_visible="true"
       lpeversion="1.3"
       threshold="0.034285715"
       steps="1"
       smooth_angles="0"
       helper_size="0"
       simplify_individual_paths="false"
       simplify_just_coalesce="false"
       step="1" />
    <inkscape:path-effect
       effect="powerstroke"
       id="path-effect44"
       is_visible="true"
       lpeversion="1.3"
       scale_width="1"
       interpolator_type="CentripetalCatmullRom"
       interpolator_beta="0.75"
       start_linecap_type="round"
       end_linecap_type="round"
       offset_points="44.086488,4.6506985"
       linejoin_type="spiro"
       miter_limit="4"
       not_jump="true"
       sort_points="true"
       message="&lt;b&gt;Ctrl + clic&lt;/b&gt; sobre un nodo existente y muévalo" />
    <inkscape:path-effect
       effect="simplify"
       id="path-effect43"
       is_visible="true"
       lpeversion="1.3"
       threshold="0.034285715"
       steps="1"
       smooth_angles="0"
       helper_size="0"
       simplify_individual_paths="false"
       simplify_just_coalesce="false"
       step="1" />
    <inkscape:path-effect
       effect="powerstroke"
       id="path-effect42"
       is_visible="true"
       lpeversion="1.3"
       scale_width="1"
       interpolator_type="CentripetalCatmullRom"
       interpolator_beta="0.75"
       start_linecap_type="round"
       end_linecap_type="round"
       offset_points="3.0290976,4.6506985"
       linejoin_type="spiro"
       miter_limit="4"
       not_jump="true"
       sort_points="true"
       message="&lt;b&gt;Ctrl + clic&lt;/b&gt; sobre un nodo existente y muévalo" />
    <inkscape:path-effect
       effect="simplify"
       id="path-effect41"
       is_visible="true"
       lpeversion="1.3"
       threshold="0.034285715"
       steps="1"
       smooth_angles="0"
       helper_size="0"
       simplify_individual_paths="false"
       simplify_just_coalesce="false"
       step="1" />
    <inkscape:path-effect
       effect="powerstroke"
       id="path-effect40"
       is_visible="true"
       lpeversion="1.3"
       scale_width="1"
       interpolator_type="CentripetalCatmullRom"
       interpolator_beta="0.75"
       start_linecap_type="round"
       end_linecap_type="round"
       offset_points="4.9356828,4.6506985"
       linejoin_type="spiro"
       miter_limit="4"
       not_jump="true"
       sort_points="true"
       message="&lt;b&gt;Ctrl + clic&lt;/b&gt; sobre un nodo existente y muévalo" />
    <inkscape:path-effect
       effect="simplify"
       id="path-effect39"
       is_visible="true"
       lpeversion="1.3"
       threshold="0.034285715"
       steps="1"
       smooth_angles="0"
       helper_size="0"
       simplify_individual_paths="false"
       simplify_just_coalesce="false"
       step="1" />
    <inkscape:path-effect
       effect="powerstroke"
       id="path-effect38"
       is_visible="true"
       lpeversion="1.3"
       scale_width="1"
       interpolator_type="CentripetalCatmullRom"
       interpolator_beta="0.75"
       start_linecap_type="round"
       end_linecap_type="round"
       offset_points="0,4.6506985"
       linejoin_type="spiro"
       miter_limit="4"
       not_jump="true"
       sort_points="true"
       message="&lt;b&gt;Ctrl + clic&lt;/b&gt; sobre un nodo existente y muévalo" />
    <inkscape:path-effect
       effect="simplify"
       id="path-effect37"
       is_visible="true"
       lpeversion="1.3"
       threshold="0.034285715"
       steps="1"
       smooth_angles="0"
       helper_size="0"
       simplify_individual_paths="false"
       simplify_just_coalesce="false"
       step="1" />
    <inkscape:path-effect
       effect="powerstroke"
       id="path-effect36"
       is_visible="true"
       lpeversion="1.3"
       scale_width="1"
       interpolator_type="CentripetalCatmullRom"
       interpolator_beta="0.75"
       start_linecap_type="round"
       end_linecap_type="round"
       offset_points="2.9903476,0.41106756"
       linejoin_type="spiro"
       miter_limit="4"
       not_jump="true"
       sort_points="true"
       message="&lt;b&gt;Ctrl + clic&lt;/b&gt; sobre un nodo existente y muévalo" />
    <inkscape:path-effect
       effect="simplify"
       id="path-effect35"
       is_visible="true"
       lpeversion="1.3"
       threshold="0.034285715"
       steps="1"
       smooth_angles="0"
       helper_size="0"
       simplify_individual_paths="false"
       simplify_just_coalesce="false"
       step="1" />
    <inkscape:path-effect
       effect="powerstroke"
       id="path-effect34"
       is_visible="true"
       lpeversion="1.3"
       scale_width="1"
       interpolator_type="CentripetalCatmullRom"
       interpolator_beta="0.75"
       start_linecap_type="round"
       end_linecap_type="round"
       offset_points="5.0500963,0.41106756"
       linejoin_type="spiro"
       miter_limit="4"
       not_jump="true"
       sort_points="true"
       message="&lt;b&gt;Ctrl + clic&lt;/b&gt; sobre un nodo existente y muévalo" />
    <inkscape:path-effect
       effect="simplify"
       id="path-effect33"
       is_visible="true"
       lpeversion="1.3"
       threshold="0.034285715"
       steps="1"
       smooth_angles="0"
       helper_size="0"
       simplify_individual_paths="false"
       simplify_just_coalesce="false"
       step="1" />
    <inkscape:path-effect
       effect="powerstroke"
       id="path-effect32"
       is_visible="true"
       lpeversion="1.3"
       scale_width="1"
       interpolator_type="CentripetalCatmullRom"
       interpolator_beta="0.75"
       start_linecap_type="round"
       end_linecap_type="round"
       offset_points="8.0080541,0.41106756"
       linejoin_type="spiro"
       miter_limit="4"
       not_jump="true"
       sort_points="true"
       message="&lt;b&gt;Ctrl + clic&lt;/b&gt; sobre un nodo existente y muévalo" />
    <inkscape:path-effect
       effect="simplify"
       id="path-effect31"
       is_visible="true"
       lpeversion="1.3"
       threshold="0.012"
       steps="1"
       smooth_angles="0"
       helper_size="0"
       simplify_individual_paths="false"
       simplify_just_coalesce="false"
       step="1" />
    <inkscape:path-effect
       effect="powerstroke"
       id="path-effect30"
       is_visible="true"
       lpeversion="1.3"
       scale_width="1"
       interpolator_type="CentripetalCatmullRom"
       interpolator_beta="0.75"
       start_linecap_type="round"
       end_linecap_type="round"
       offset_points="3.7731761,0.41106756"
       linejoin_type="spiro"
       miter_limit="4"
       not_jump="true"
       sort_points="true"
       message="&lt;b&gt;Ctrl + clic&lt;/b&gt; sobre un nodo existente y muévalo" />
    <inkscape:path-effect
       effect="simplify"
       id="path-effect29"
       is_visible="true"
       lpeversion="1.3"
       threshold="0.012"
       steps="1"
       smooth_angles="0"
       helper_size="0"
       simplify_individual_paths="false"
       simplify_just_coalesce="false"
       step="1" />
    <inkscape:path-effect
       effect="powerstroke"
       id="path-effect28"
       is_visible="true"
       lpeversion="1.3"
       scale_width="1"
       interpolator_type="CentripetalCatmullRom"
       interpolator_beta="0.75"
       start_linecap_type="round"
       end_linecap_type="round"
       offset_points="3.7697033,0.41106756"
       linejoin_type="spiro"
       miter_limit="4"
       not_jump="true"
       sort_points="true"
       message="&lt;b&gt;Ctrl + clic&lt;/b&gt; sobre un nodo existente y muévalo" />
    <inkscape:path-effect
       effect="simplify"
       id="path-effect27"
       is_visible="true"
       lpeversion="1.3"
       threshold="0.012"
       steps="1"
       smooth_angles="0"
       helper_size="0"
       simplify_individual_paths="false"
       simplify_just_coalesce="false"
       step="1" />
    <inkscape:path-effect
       effect="bspline"
       id="path-effect21"
       is_visible="true"
       lpeversion="1.3"
       weight="33.333333"
       steps="2"
       helper_size="0"
       apply_no_weight="true"
       apply_with_weight="true"
       only_selected="false"
       uniform="false" />
    <inkscape:path-effect
       effect="bspline"
       id="path-effect9"
       is_visible="true"
       lpeversion="1.3"
       weight="33.333333"
       steps="2"
       helper_size="0"
       apply_no_weight="true"
       apply_with_weight="true"
       only_selected="false"
       uniform="false" />
    <inkscape:path-effect
       effect="bspline"
       id="path-effect8"
       is_visible="true"
       lpeversion="1.3"
       weight="33.333333"
       steps="2"
       helper_size="0"
       apply_no_weight="true"
       apply_with_weight="true"
       only_selected="false"
       uniform="false" />
    <inkscape:path-effect
       effect="bspline"
       id="path-effect7"
       is_visible="true"
       lpeversion="1.3"
       weight="33.333333"
       steps="2"
       helper_size="0"
       apply_no_weight="true"
       apply_with_weight="true"
       only_selected="false"
       uniform="false" />
    <inkscape:path-effect
       effect="bspline"
       id="path-effect55-7"
       is_visible="true"
       lpeversion="1.3"
       weight="33.333333"
       steps="2"
       helper_size="0"
       apply_no_weight="true"
       apply_with_weight="true"
       only_selected="false"
       uniform="false" />
    <inkscape:path-effect
       effect="bspline"
       id="path-effect55-7-6"
       is_visible="true"
       lpeversion="1.3"
       weight="33.333333"
       steps="2"
       helper_size="0"
       apply_no_weight="true"
       apply_with_weight="true"
       only_selected="false"
       uniform="false" />
  </defs>
  <sodipodi:namedview
     id="namedview1"
     pagecolor="#ffffff"
     bordercolor="#000000"
     borderopacity="0"
     inkscape:showpageshadow="2"
     inkscape:pageopacity="0.0"
     inkscape:pagecheckerboard="true"
     inkscape:deskcolor="#b1b1b1"
     inkscape:zoom="0.8063305"
     inkscape:cx="124.63872"
     inkscape:cy="206.49101"
     inkscape:window-width="1366"
     inkscape:window-height="697"
     inkscape:window-x="-8"
     inkscape:window-y="-8"
     inkscape:window-maximized="1"
     inkscape:current-layer="g1" />
  <g
     inkscape:groupmode="layer"
     inkscape:label="Image"
     id="g1">
    <rect
       style="fill:#000000;stroke-width:1.48015"
       id="rect1"
       width="111.2292"
       height="11.549234"
       x="57.358616"
       y="282.83997" />
    <rect
       style="fill:#000000"
       id="rect2"
       width="2.1923602"
       height="65.113098"
       x="104.79482"
       y="222.08609" />
    <rect
       style="fill:#000000"
       id="rect2-8"
       width="2.1923602"
       height="65.113098"
       x="115.42715"
       y="228.2532" />
    <path
       style="fill:#000000;stroke-width:1.19865"
       d="m 106.52202,224.61699 -22.751823,65.75145 3.661211,-0.52813 -0.784545,-2.11249 20.136657,-56.50927 z"
       id="path2" />
    <path
       style="fill:#000000;stroke-width:1.28802"
       d="m 117.76113,230.12306 30.77776,56.12442 -4.95274,-0.45079 1.06129,-1.8032 -27.24007,-48.23545 z"
       id="path2-1" />
    <rect
       style="fill:#000000"
       id="rect3"
       width="9.6114435"
       height="2.7129076"
       x="106.57851"
       y="243.23154" />
    <rect
       style="fill:#000000"
       id="rect4"
       width="9.3013973"
       height="2.5578842"
       x="106.50099"
       y="254.08316" />
    <rect
       style="fill:#000000"
       id="rect5"
       width="9.6114435"
       height="2.9454424"
       x="106.81104"
       y="264.85727" />
    <rect
       style="fill:#000000"
       id="rect6"
       width="9.3013973"
       height="3.1779773"
       x="106.65602"
       y="273.38354" />
    <ellipse
       style="fill:#ffe209;fill-opacity:1"
       id="path6"
       cx="38.32951"
       cy="71.969559"
       rx="7.2473383"
       ry="6.9372921" />
    <path
       style="fill:#ffe209;fill-opacity:1"
       d="m 36.185018,91.79962 c -1.175593,0.232535 -2.441617,0.800954 -3.565545,2.454563 -1.123929,1.653609 -2.105723,4.392299 -2.402848,8.229177 -0.297124,3.83687 0.09043,8.77168 2.041171,16.57463 1.950744,7.80294 5.464536,18.4735 8.125788,25.35915 2.661252,6.88565 4.46982,9.98605 6.691846,13.92627 2.222025,3.94022 4.857368,8.72001 8.125816,13.62913 3.268448,4.90913 7.169786,9.94728 10.825788,14.46883 3.656001,4.52156 7.066442,8.52624 12.027253,13.3837 4.960811,4.85745 11.471656,10.56736 17.775998,15.60566 6.304345,5.0383 12.401805,9.4047 19.274585,13.73248 6.87277,4.32777 14.52043,8.61666 22.80135,12.18223 8.28091,3.56556 17.19457,6.4076 24.80369,8.16454 7.60913,1.75694 13.91328,2.42869 19.85589,2.58371 5.94262,0.15502 11.52335,-0.2067 16.71667,-0.86556 5.19333,-0.65885 9.99896,-1.61481 12.8669,-2.82918 2.86794,-1.21436 3.79806,-2.68705 3.87556,-4.26313 0.0775,-1.57609 -0.69759,-3.25548 -1.9378,-4.31481 -1.2402,-1.05933 -2.94542,-1.49855 -5.94258,-1.66649 -2.99716,-0.16794 -7.28605,-0.0646 -13.04294,-0.35894 -5.75689,-0.29435 -12.98141,-0.98636 -21.28,-2.41944 -8.2986,-1.43307 -17.67075,-3.60712 -25.8661,-6.27117 -8.19534,-2.66406 -15.21342,-5.81795 -22.23645,-9.51363 -7.02304,-3.69567 -14.05062,-7.93289 -20.74252,-12.86785 -6.691902,-4.93496 -13.04773,-10.56736 -19.145372,-17.05258 -6.097641,-6.48521 -11.936735,-13.82283 -16.92336,-21.05733 -4.986626,-7.23449 -9.120493,-14.36541 -12.376006,-21.47072 -3.255513,-7.1053 -5.63249,-14.18456 -7.854511,-21.49657 -2.222021,-7.312 -4.288959,-14.85632 -5.322447,-20.07546 -1.033488,-5.21915 -1.033488,-8.11286 -1.498567,-10.024823 -0.465079,-1.911963 -1.3952,-2.842084 -2.402862,-3.35883 -1.007663,-0.516745 -2.092804,-0.620092 -3.268397,-0.387557 z"
       id="path7"
       inkscape:path-effect="#path-effect7"
       inkscape:original-d="m 36.275448,91.463736 c -1.266023,0.568419 -2.532047,1.136838 -3.79807,1.705256 -0.981834,2.7388 -1.963629,5.47749 -2.945443,8.216238 0.387566,4.935 0.775117,9.86981 1.162675,14.80472 3.513931,10.67098 7.027722,21.34154 10.541583,32.01231 1.808641,3.10053 3.61721,6.20093 5.425815,9.30139 2.635448,4.77998 5.270791,9.55977 7.906187,14.33966 3.901498,5.03836 7.802839,10.07651 11.704258,15.11477 3.41058,4.00485 6.821024,8.00953 10.231537,12.0143 6.511108,5.71014 13.021955,11.42005 19.532933,17.13008 6.097707,4.36657 12.195167,8.73297 18.292747,13.09946 7.64797,4.28907 15.29563,8.57796 22.94345,12.86693 8.91401,2.84216 17.82767,5.68419 26.74151,8.52629 6.30441,0.67178 12.60856,1.34353 18.91284,2.0153 5.58095,-0.36173 11.16168,-0.72344 16.74252,-1.08517 4.80581,-0.95599 9.61144,-1.91195 14.41716,-2.86793 0.93016,-1.47275 1.86028,-2.94544 2.79042,-4.41816 -0.77513,-1.67945 -1.55023,-3.35884 -2.32535,-5.03826 -1.70529,-0.43924 -3.41051,-0.87846 -5.11577,-1.31769 -4.28906,0.10335 -8.57795,0.20669 -12.86693,0.31004 -7.2248,-0.69203 -14.44932,-1.38404 -21.67398,-2.07607 -9.37253,-2.17413 -18.74468,-4.34818 -28.11702,-6.52227 -7.01835,-3.15402 -14.03643,-6.30791 -21.05464,-9.46187 -7.02786,-4.23739 -14.05544,-8.47461 -21.08316,-12.71191 -6.356086,-5.63262 -12.711914,-11.26502 -19.067868,-16.89754 -5.839327,-7.33791 -11.678421,-14.67553 -17.517631,-22.0133 -4.134037,-7.13122 -8.267909,-14.26214 -12.401863,-21.39322 -2.377071,-7.07953 -4.754047,-14.15879 -7.131071,-21.23819 -2.067018,-7.54461 -4.133954,-15.08893 -6.200931,-22.63339 0,-2.89383 0,-5.78754 0,-8.681308 -0.930158,-0.930158 -1.860279,-1.860279 -2.790419,-2.790419 -1.085185,-0.103351 -2.170326,-0.206698 -3.255489,-0.310047 z" />
    <path
       style="fill:#ffe209;fill-opacity:1"
       d="m 65.884895,90.843643 c -0.206698,-3.61721 -0.413395,-7.23442 -0.155016,-11.161718 0.258379,-3.927299 0.981807,-8.164518 2.273686,-12.117648 1.291879,-3.95313 3.152121,-7.621941 5.735876,-10.74827 2.583754,-3.126329 5.890851,-5.709998 9.327236,-7.492776 3.436386,-1.782778 7.00185,-2.764572 9.533912,-3.798072 2.532062,-1.033499 4.03059,-2.11864 4.676518,-3.798082 0.645928,-1.679441 0.439235,-3.953071 -0.542597,-5.477474 -0.981831,-1.524403 -2.738727,-2.299504 -5.296644,-2.790414 -2.557918,-0.490909 -5.916689,-0.697602 -9.172209,-0.12917 -3.255521,0.568432 -6.407598,1.911941 -10.024848,4.547375 -3.617251,2.635435 -7.699368,6.562535 -10.593193,10.231493 -2.893826,3.668957 -4.599048,7.079401 -5.78756,10.050681 -1.188512,2.971279 -1.86028,5.503327 -2.635405,8.552154 -0.775125,3.048826 -1.653573,6.61429 -2.015292,13.461253 -0.36172,6.846963 -0.206699,16.974948 0.69762,24.855355 0.90432,7.88041 2.557868,13.51281 4.418168,18.887 1.8603,5.37419 3.927237,10.48986 7.027743,16.53583 3.100506,6.04598 7.234378,13.02189 11.109995,18.80947 3.875617,5.78758 7.492754,10.38651 13.151181,16.30331 5.658427,5.91679 13.357764,13.15107 20.721444,19.4554 7.36367,6.30434 14.39125,11.67837 23.61525,17.05256 9.224,5.3742 20.64382,10.74823 28.96346,13.92622 8.31963,3.17798 13.53865,4.15978 18.65447,4.67652 5.11581,0.51675 10.12813,0.56842 14.88223,-1e-5 4.75409,-0.56843 9.24967,-1.75692 13.61621,-3.84976 4.36653,-2.09285 8.60374,-5.0899 12.55687,-8.78466 3.95313,-3.69477 7.62195,-8.08701 9.71477,-11.31669 2.09281,-3.22967 2.60955,-5.2966 2.73873,-8.16457 0.12918,-2.86797 -0.12918,-6.53678 -0.77512,-9.55975 -0.64594,-3.02298 -1.67941,-5.39996 -2.53205,-6.79517 -0.85263,-1.39522 -1.52438,-1.8086 -2.53204,-2.0153 -1.00767,-0.2067 -2.35118,-0.2067 -3.30716,0.46508 -0.95599,0.67178 -1.52439,2.01529 -1.8086,3.25549 -0.28421,1.2402 -0.28421,2.37701 -0.46507,4.44402 -0.18087,2.067 -0.54259,5.06406 -2.14452,8.37126 -1.60194,3.3072 -4.44397,6.92434 -8.03539,10.07651 -3.59142,3.15216 -7.93198,5.83918 -13.04781,7.46693 -5.11583,1.62775 -11.00659,2.19615 -17.44013,1.78274 -6.43353,-0.4134 -13.40944,-1.80858 -22.16836,-5.21915 -8.75892,-3.41056 -19.3003,-8.83627 -26.974,-13.79706 -7.6737,-4.96079 -12.47932,-9.45638 -15.32142,-11.98843 -2.84211,-2.53205 -3.72056,-3.10046 -4.0306,-4.1598 -0.31004,-1.05934 -0.0517,-2.60955 1.34356,-4.65071 1.39524,-2.04117 3.92723,-4.57316 5.68417,-6.97604 1.75694,-2.40289 2.73874,-4.67652 3.38467,-6.4593 0.64593,-1.78278 0.95597,-3.07462 0.72343,-4.13395 -0.23254,-1.05933 -1.00764,-1.88611 -2.19617,-2.45453 -1.18853,-0.56842 -2.7904,-0.87846 -4.80573,-0.12917 -2.01533,0.7493 -4.44398,2.55787 -7.02773,4.44401 -2.58375,1.88613 -5.32244,3.84972 -7.13105,4.67651 -1.80861,0.82679 -2.68706,0.51675 -5.287057,-2.21373 -2.599998,-2.73047 -6.921357,-7.88117 -10.251361,-12.64898 -3.330005,-4.7678 -5.668474,-9.15243 -7.787775,-13.53719 -2.119302,-4.38477 -4.019308,-8.7694 -5.773213,-13.44648 -1.753904,-4.67709 -3.361602,-9.64634 -4.584934,-15.11398 -1.223331,-5.46764 -2.06223,-11.433328 -2.481687,-14.416233 -0.419458,-2.982904 -0.419458,-2.982904 -0.419458,-2.982904"
       id="path8"
       inkscape:path-effect="#path-effect8"
       inkscape:original-d="m 65.884895,90.843643 c -0.206698,-3.61721 -0.413396,-7.23442 -0.620093,-10.85163 0.723456,-4.237387 1.446884,-8.474606 2.170326,-12.711909 1.860316,-3.668957 3.720558,-7.337768 5.580838,-11.006653 3.307229,-2.583773 6.614326,-5.167442 9.92149,-7.751164 3.565607,-0.981834 7.131071,-1.963628 10.696606,-2.945442 1.498589,-1.085185 2.997117,-2.170326 4.495675,-3.255489 -0.206701,-2.27372 -0.413395,-4.54735 -0.620093,-6.821024 -1.756965,-0.775132 -3.513861,-1.550233 -5.270791,-2.32535 -3.358905,-0.206702 -6.717676,-0.413395 -10.076514,-0.620093 -3.152203,1.343562 -6.30428,2.68707 -9.45642,4.030606 -4.082361,3.927334 -8.164478,7.854434 -12.246839,11.781769 -1.70529,3.41058 -3.410512,6.821024 -5.115768,10.231537 -0.671768,2.532046 -1.343536,5.064094 -2.015303,7.59614 -0.878483,3.565607 -1.756931,7.131071 -2.635396,10.696607 0.155027,10.12839 0.310047,20.256375 0.46507,30.384562 1.653615,5.63263 3.307163,11.26503 4.960745,16.89754 2.067018,5.11587 4.133954,10.23154 6.200931,15.3473 4.134037,6.97619 8.267909,13.9521 12.401863,20.92815 3.617282,4.59911 7.23442,9.19804 10.85163,13.79707 7.699643,7.23456 15.398978,14.46884 23.098468,21.70326 7.02786,5.37425 14.05544,10.74828 21.08317,16.12242 11.42027,5.37425 22.84009,10.74828 34.26014,16.12242 5.21922,0.98183 10.43824,1.96363 15.65735,2.94544 5.01252,0.0517 10.02484,0.10335 15.03726,0.15503 4.49577,-1.18854 8.99135,-2.37703 13.48703,-3.56554 4.23739,-2.99718 8.4746,-5.99423 12.71191,-8.99135 3.66895,-4.39241 7.33777,-8.78465 11.00665,-13.17698 0.51675,-2.06702 1.03349,-4.13395 1.55023,-6.20093 -0.25837,-3.66896 -0.51674,-7.33777 -0.77511,-11.00665 -1.03351,-2.37707 -2.06698,-4.75405 -3.10047,-7.13107 -0.67178,-0.41341 -1.34353,-0.82679 -2.0153,-1.24019 -1.34356,0 -2.68707,0 -4.03061,0 -0.56843,1.34356 -1.13683,2.68707 -1.70525,4.03061 0,1.13686 0,2.27367 0,3.41051 -0.36173,2.99717 -0.72345,5.99423 -1.08517,8.99135 -2.84215,3.61728 -5.68418,7.23442 -8.52628,10.85163 -4.34074,2.68712 -8.6813,5.37414 -13.02195,8.06121 -5.89101,0.56843 -11.78177,1.13684 -17.67266,1.70525 -6.97618,-1.39523 -13.95209,-2.79041 -20.92814,-4.18562 -10.54179,-5.42593 -21.08317,-10.85163 -31.62475,-16.27745 -4.80582,-4.49576 -9.61144,-8.99135 -14.41716,-13.48702 -0.87849,-0.56843 -1.75694,-1.13684 -2.6354,-1.70526 0.25838,-1.55026 0.51674,-3.10047 0.77512,-4.6507 2.53209,-2.5321 5.06409,-5.06409 7.59614,-7.59614 0.98183,-2.27372 1.96362,-4.54735 2.94544,-6.82102 0.31005,-1.29189 0.62009,-2.58373 0.93014,-3.87559 -0.77513,-0.8268 -1.55023,-1.65358 -2.32535,-2.48037 -1.60194,-0.31005 -3.20381,-0.62009 -4.80572,-0.93014 -2.42875,1.80864 -4.8574,3.61721 -7.2861,5.42582 -2.7388,1.96366 -5.47749,3.92725 -8.21623,5.89088 -0.87848,-0.31005 -1.756931,-0.62009 -2.635396,-0.93014 -4.32153,-5.1509 -8.642888,-10.3016 -12.964331,-15.4524 -2.338565,-4.38481 -4.677035,-8.76944 -7.015553,-13.15416 -1.900084,-4.38481 -3.800091,-8.76944 -5.700137,-13.15416 -1.607763,-4.96945 -3.215462,-9.9387 -4.823192,-14.90805 -0.838932,-5.96593 -1.677831,-11.931618 -2.516746,-17.897427 v 0"
       sodipodi:nodetypes="ccccccccccccccccccccccccccccccccccccccccccccccccccccccccsc" />
    <path
       id="path9"
       style="fill:#328c01;fill-opacity:1"
       d="m 89.466797,65.322266 c -1.598574,-0.07308 -3.070039,0.174117 -4.367188,0.630859 -2.594284,0.91347 -4.493089,2.668324 -5.552734,4.568359 -1.059645,1.900035 -1.27921,3.945435 -1.023437,5.955078 0.255759,2.009657 0.986208,3.982358 3.105468,8.732422 2.119261,4.750077 5.626412,12.27802 11.472656,21.705076 5.846258,9.42709 14.031988,20.75518 21.595708,30.47461 7.56358,9.71944 14.50529,17.83085 20.60742,24.26172 6.102,6.43087 11.36448,11.18096 17.32031,15.63867 5.95583,4.45785 12.60633,8.62339 16.91797,10.52344 4.31151,1.90005 6.28498,1.5341 7.52734,0.83984 1.24236,-0.69425 1.75408,-1.71732 -4.49414,-8.8789 -6.24808,-7.16171 -19.25634,-20.46216 -25.79687,-27.55078 -6.54067,-7.08876 -6.61432,-7.96576 -4.67774,-9.90235 1.93658,-1.93659 5.88255,-4.93301 7.7461,-6.65039 1.86341,-1.71738 1.64497,-2.15456 7.67382,2.96094 6.02899,5.11537 18.3053,15.78524 25.61329,21.04687 7.30785,5.26177 9.64745,5.1151 10.96289,4.23829 1.3153,-0.87695 1.60693,-2.48608 1.82617,-3.47266 0.21924,-0.98658 0.36552,-1.35079 -2.9961,-4.93164 -3.36148,-3.58085 -10.23188,-10.37844 -21.96093,-21.48633 C 159.23774,122.9175 142.64883,107.49934 131.0293,96.939453 119.40976,86.379584 112.76116,80.679302 107.46289,76.148438 102.16476,71.61756 98.217001,68.255604 94.599609,66.611328 92.79092,65.78919 91.065358,65.395349 89.466797,65.322266 Z m 9.584364,21.872207 c 0.603013,0.05481 1.335429,0.62143 1.866809,1.258652 1.55695,1.023046 2.78657,2.432005 4.0293,3.798828 0.24233,0.259041 0.46953,0.530427 0.70312,0.796875 0.23124,0.01698 0.49902,0.119181 0.78125,0.34375 0.68533,0.545329 1.29661,1.177861 1.9082,1.802734 0.57956,0.590136 1.09814,1.232525 1.62696,1.867188 0.44136,0.474544 0.96726,0.858392 1.46093,1.275391 0.4591,0.365267 0.88395,0.769911 1.33008,1.15039 0.6459,0.477808 1.28452,0.963639 1.91407,1.462889 0.67848,0.53297 1.35979,1.05988 1.98437,1.65625 0.55499,0.58241 0.99718,1.25769 1.47461,1.90235 0.37925,0.51991 0.78272,1.02105 1.20117,1.50976 0.56218,0.64222 1.21586,1.18631 1.86133,1.74024 0.11801,0.10693 0.23551,0.21338 0.35352,0.32031 0.22372,0.2028 0.36076,0.40901 0.43164,0.60351 0.21792,0.18971 0.40525,0.41113 0.61132,0.61329 0.12877,-0.0388 0.24988,-0.0583 0.35743,-0.0586 0.43702,-0.001 0.65783,0.30815 0.41796,0.83789 0.0984,0.10608 0.20925,0.19959 0.30665,0.30664 0.63687,0.70185 1.29964,1.37906 1.91796,2.09766 0.6619,0.86193 1.40758,1.6497 2.18164,2.41015 1.07227,1.01849 2.1514,2.03087 3.21485,3.0586 0.72093,0.66527 1.39558,1.37654 2.11133,2.04687 0.21726,0.19797 0.46124,0.36452 0.6875,0.55274 0.25193,0.14536 0.50412,0.29212 0.75,0.44726 0.74667,0.50117 1.49416,1.00565 2.15039,1.625 0.32403,0.31502 0.63196,0.64556 0.92578,0.98829 0.098,0.0857 0.19971,0.16708 0.29687,0.2539 0.60602,0.5073 0.9849,1.20237 1.30274,1.91211 0.0898,0.22775 0.14665,0.46315 0.21679,0.69531 0.2785,0.59386 0.51485,1.20604 0.66602,1.84961 0.1069,0.65255 0.20869,1.30981 0.0312,1.96094 -0.15229,0.5294 -0.38806,1.01708 -0.78711,1.4082 -0.53407,0.4826 -1.15124,0.84481 -1.79687,1.16016 -0.76178,0.38165 -1.52558,0.76275 -2.2793,1.16016 -0.7455,0.40303 -1.48521,0.81428 -2.2168,1.24218 -0.46932,0.25461 -1.36326,0.8302 -1.91406,0.66211 -0.23695,-0.0723 -0.42565,-0.26114 -0.60352,-0.43359 -0.0694,-0.0673 -0.0781,-0.17723 -0.11718,-0.26563 -0.0541,-0.2086 -0.0883,-0.41931 -0.1211,-0.63086 -0.17667,0.005 -0.36479,-0.0376 -0.55468,-0.18945 -0.41861,0.004 -0.68504,-0.31483 -0.64649,-0.72851 -0.34369,0.15449 -0.84409,-0.0149 -1.1875,-0.67579 -0.29327,-0.5644 -0.61094,-1.1163 -0.90625,-1.67968 -0.37834,-0.70212 -0.72647,-1.41936 -1.10937,-2.11914 -0.065,-0.1172 -0.13058,-0.23412 -0.19532,-0.35157 -0.30324,0.10967 -0.73437,0.005 -1.14648,-0.45117 -0.0687,-0.0759 0.40976,0.2056 -0.20703,-0.22656 -0.38536,-0.39856 0.5483,-0.11729 0.12206,-0.47309 -0.69463,-0.57983 -1.97739,-1.92685 -1.58886,-2.17535 -0.57033,-0.53387 -1.06358,-1.15486 -1.55664,-1.75781 -0.90814,-1.14188 -1.89683,-2.21596 -2.875,-3.29688 -0.87371,-1.00935 -1.84782,-1.92209 -2.8418,-2.81054 -0.92391,-0.74815 -1.69242,-1.64887 -2.43945,-2.56641 -0.79663,-0.95337 -1.6174,-1.88644 -2.42773,-2.82812 -0.36689,-0.44371 -0.75852,-0.86536 -1.13672,-1.29883 -0.29452,-0.26788 -0.58789,-0.53846 -0.8711,-0.81836 -1.27793,-1.20561 -2.50606,-2.46254 -3.59179,-3.84766 -1.44554,-1.82086 -2.9119,-3.64319 -4.04493,-5.68164 -0.37044,-0.715834 -0.67238,-1.273003 -1.0039,-2.011717 -0.432472,-0.963648 -1.178576,-1.434021 -1.494983,-2.441641 -0.630455,-0.768549 -0.975804,-2.206568 -1.54902,-3.020176 -0.529643,-0.757129 -0.832375,-1.382283 -0.928655,-2.309667 -0.01212,-0.552333 -0.104635,-1.674142 0.145185,-2.149237 0.250989,-0.466905 0.693602,-0.745759 1.055567,-1.132086 0.09828,-0.07611 0.379388,-0.148005 0.488701,-0.207185 0.267488,-0.144824 0.770812,-0.185184 1.041129,-0.160616 z m 0.456651,2.217636 c 0.0092,0.0115 0.02004,0.02171 0.0293,0.0332 0.0068,-0.0043 0.01274,-0.0056 0.01953,-0.0098 -0.01697,-0.0078 -0.02667,-0.01216 -0.04883,-0.02344 z m -1.751953,1.060547 c -0.0084,0.02052 -0.01914,0.03997 -0.02734,0.06055 0.02543,-0.0067 0.05072,-0.0057 0.07617,-0.01172 -0.016,-0.01651 -0.03285,-0.03228 -0.04883,-0.04883 z"
       sodipodi:nodetypes="ssssssccccscssccccscsscssscccsccccccccccccccccccccccccccccccccssccccscccccsccccccccccscccccsssscccscccc" />
    <path
       style="fill:#328c01;fill-opacity:1"
       d="m 168.32632,93.259939 c 1.80084,-2.20391 4.65091,-4.542429 6.4048,-5.857848 1.7539,-1.315419 2.41159,-1.607725 3.42703,-1.277003 1.01543,0.330722 2.38854,1.284445 4.93542,3.776656 2.54688,2.492211 6.26737,6.522738 9.5358,10.514626 3.26844,3.99189 6.08464,7.9449 8.90093,12.44063 2.81628,4.49573 5.63248,9.53388 7.09228,13.29322 1.45981,3.75934 1.56315,6.23966 1.27894,7.89325 -0.28422,1.65359 -0.95597,2.48037 -2.67418,2.77749 -1.7182,0.29713 -4.48272,0.0646 -8.77176,-1.39523 -4.28904,-1.45983 -10.10229,-4.14685 -17.44015,-8.31961 -7.33786,-4.17277 -16.19984,-9.83101 -24.71329,-16.43249 -8.51344,-6.60148 -16.67784,-14.1458 -22.98216,-20.656833 -6.30433,-6.511033 -10.74824,-11.988412 -14.88223,-17.827683 -4.13399,-5.839272 -7.95782,-12.040079 -10.28318,-16.69081 -2.32536,-4.650731 -3.15213,-7.751133 -2.27364,-10.38655 0.87849,-2.635417 3.46216,-4.805701 5.78753,-5.839188 2.32537,-1.033488 4.3923,-0.930141 6.76935,-0.516739 2.37705,0.413402 5.06407,1.136831 8.83635,2.945464 3.77228,1.808633 8.62958,4.702344 13.90043,8.681326 5.27085,3.978982 10.95492,9.042973 13.90037,12.298477 2.94544,3.255504 3.15213,4.70236 2.22198,5.735853 -0.93016,1.033493 -2.9971,1.653575 -7.49285,-0.258422 -4.49574,-1.911998 -11.41997,-6.355907 -16.17405,-9.508067 -4.75407,-3.15216 -7.33774,-5.012403 -9.14636,-5.942542 -1.80861,-0.93014 -2.84208,-0.93014 -3.4105,-0.620087 -0.56842,0.310053 -0.67176,0.930132 0.15505,2.635416 0.8268,1.705283 2.5837,4.495649 5.58086,8.216255 2.99716,3.720605 7.23437,8.371207 13.84879,15.554051 6.61442,7.182845 15.60559,16.897443 22.99509,23.718509 7.3895,6.82106 13.17692,10.74824 16.4195,12.85397 3.24257,2.10573 3.94017,2.38994 4.8574,2.50621 0.91723,0.11627 2.05405,0.0646 2.6483,-0.55551 0.59426,-0.62011 0.64593,-1.80859 -1.11103,-4.58614 -1.75697,-2.77754 -5.32243,-7.14394 -7.28607,-9.36594 -1.96363,-2.222 -2.32534,-2.29952 -3.2555,-1.93779 -0.93015,0.36173 -2.42868,1.16267 -3.73347,1.49855 -1.30479,0.33588 -2.41577,0.2067 -3.57845,-0.37465 -1.16269,-0.58134 -2.37702,-1.61481 -2.60838,-3.166229 -0.23137,-1.551418 0.52022,-3.620681 2.32105,-5.824592 z"
       id="path21"
       inkscape:path-effect="#path-effect21"
       inkscape:original-d="m 167.27709,93.394548 c 2.85007,-2.338518 5.70014,-4.677035 8.5502,-7.015553 0.65773,-0.292321 1.31542,-0.58463 1.97313,-0.876944 1.37316,0.953759 2.74627,1.90748 4.1194,2.86122 3.72063,4.030686 7.44112,8.06121 11.16168,12.091819 2.81631,3.95317 5.63251,7.90618 8.44877,11.85928 2.81631,5.03836 5.63251,10.07651 8.44877,15.11477 0.10335,2.48042 0.20669,4.96074 0.31004,7.44112 -0.67178,0.8268 -1.34353,1.65358 -2.0153,2.48037 -2.76464,-0.23254 -5.52916,-0.46507 -8.29375,-0.69761 -5.81349,-2.68712 -11.62674,-5.37414 -17.44012,-8.06121 -8.86234,-5.65846 -17.72432,-11.3167 -26.58649,-16.97505 -8.16472,-7.54461 -16.32912,-15.08893 -24.49368,-22.633396 -4.44409,-5.477599 -8.888,-10.954979 -13.332,-16.432468 -3.82398,-6.201055 -7.64781,-12.401863 -11.47172,-18.602794 -0.82681,-3.100528 -1.65358,-6.200931 -2.48037,-9.301397 2.58377,-2.170369 5.16744,-4.340652 7.75116,-6.510978 2.06702,0.103351 4.13395,0.206698 6.20093,0.310047 2.68712,0.723456 5.37414,1.446884 8.06121,2.170326 4.85749,2.893826 9.71479,5.787536 14.57219,8.681304 5.6843,5.064195 11.36837,10.128187 17.05256,15.192281 0.2067,1.446913 0.4134,2.893768 0.62009,4.340652 -2.06701,0.620106 -4.13395,1.240186 -6.20093,1.860279 -6.92451,-4.444089 -13.84874,-8.888001 -20.77312,-13.332002 -2.58377,-1.860316 -5.16744,-3.720559 -7.75116,-5.580838 -1.03351,0 -2.06698,0 -3.10047,0 -0.10335,0.620106 -0.20669,1.240186 -0.31004,1.860279 1.75696,2.790475 3.51386,5.580839 5.27079,8.371258 4.23739,4.650791 8.4746,9.301397 12.71191,13.952095 8.99153,9.714987 17.9827,19.429585 26.97405,29.144382 5.78765,3.92733 11.57507,7.85451 17.36261,11.78176 0.69761,0.28422 1.39521,0.56842 2.09281,0.85263 1.13686,-0.0517 2.27368,-0.10335 3.41051,-0.15502 0.0517,-1.18854 0.10335,-2.37702 0.15503,-3.56554 -3.56561,-4.36657 -7.13108,-8.73297 -10.69661,-13.09946 -0.36173,-0.0775 -0.72344,-0.15503 -1.08516,-0.23254 -1.49859,0.80097 -2.99712,1.60191 -4.49568,2.40286 -1.11102,-0.12919 -2.222,-0.25837 -3.333,-0.38756 -1.21437,-1.0335 -2.4287,-2.06697 -3.64305,-3.100461 0.75162,-2.069345 1.50321,-4.138608 2.25481,-6.207911 z" />
    <path
       d="m 121.82524,125.52814 c 0.0282,0.034 0.0629,0.0787 0.11891,0.15822 0.056,0.0796 0.12215,0.18071 0.21194,0.30137 0.0456,0.0613 0.1037,0.13538 0.17228,0.20895 0.0209,0.0224 0.0419,0.0438 0.0659,0.0672 0.0468,0.0456 0.0972,0.0915 0.15261,0.1389 0.0588,0.0503 0.1224,0.10162 0.19109,0.15308 0.0515,0.0385 0.10827,0.079 0.16954,0.1187 0.0216,0.014 0.044,0.028 0.0672,0.0419 3.9e-4,2.6e-4 0.008,0.006 0.0232,0.0181 0.0191,0.016 0.0405,0.0363 0.0658,0.0625 0.0343,0.0355 0.069,0.0749 0.10614,0.11915 0.0524,0.0626 0.10416,0.12867 0.15801,0.1991 0.0629,0.0822 0.12666,0.16834 0.19327,0.25635 0.0384,0.0507 0.0793,0.10415 0.12252,0.15756 0.0187,0.0233 0.0383,0.0464 0.0536,0.0645 -0.005,-0.005 0.001,0.002 0.0104,0.019 0.0166,0.0308 0.0419,0.0919 0.0875,0.17247 0.0209,0.037 0.0463,0.0772 0.0776,0.11745 0.12391,0.15933 0.24042,0.3251 0.34975,0.48574 0.18577,0.27299 0.36139,0.54544 0.54053,0.8004 0.13047,0.18567 0.25303,0.34891 0.3781,0.50035 0.12181,0.1475 0.23117,0.26562 0.32747,0.36192 a 0.41106756,0.41106756 90 0 0 0.58132,-0.58136 c -0.0782,-0.0782 -0.16999,-0.17706 -0.27488,-0.30407 -0.10821,-0.13104 -0.21776,-0.2765 -0.33933,-0.44951 -0.16704,-0.23772 -0.33934,-0.50491 -0.53354,-0.79028 -0.11344,-0.16669 -0.24108,-0.3487 -0.38048,-0.52795 -9.5e-4,-0.001 -0.005,-0.006 -0.0109,-0.0173 -0.0139,-0.0246 -0.0364,-0.078 -0.0795,-0.15792 -0.0236,-0.0439 -0.0567,-0.0993 -0.10227,-0.15495 -0.0206,-0.0244 -0.0335,-0.0397 -0.0455,-0.0547 -0.0354,-0.0437 -0.0698,-0.0886 -0.10701,-0.13772 -0.063,-0.0833 -0.12763,-0.17051 -0.19555,-0.25935 -0.0571,-0.0746 -0.11713,-0.1515 -0.18089,-0.22767 -0.0448,-0.0535 -0.093,-0.10855 -0.14544,-0.16282 -0.0379,-0.0391 -0.0804,-0.0805 -0.12835,-0.12074 -0.0348,-0.0292 -0.0766,-0.0613 -0.12552,-0.0913 -0.0181,-0.0109 -0.0324,-0.0198 -0.0462,-0.0287 -0.0421,-0.0273 -0.0834,-0.0566 -0.12387,-0.0869 -0.0534,-0.04 -0.10323,-0.0802 -0.14932,-0.11965 -0.0434,-0.0372 -0.0806,-0.0712 -0.1134,-0.10309 -0.016,-0.0156 -0.0277,-0.0276 -0.0369,-0.0375 -0.0412,-0.0442 -0.0792,-0.0919 -0.11556,-0.14076 -0.0694,-0.0933 -0.13508,-0.1927 -0.19924,-0.28383 -0.0656,-0.0932 -0.11337,-0.15544 -0.15783,-0.20914 a 0.41106756,0.41106756 90 0 0 -0.63326,0.5243 z"
       id="path-1"
       inkscape:path-effect="#path-effect35;#path-effect36"
       inkscape:original-d="m 122.14187,125.26599 c 0.17793,0.2148 0.32274,0.48716 0.52069,0.68511 0.14111,0.14111 0.35367,0.31086 0.52068,0.41107 0.24769,0.14861 0.60611,0.70712 0.82214,0.95915 0.0833,0.0972 0.11312,0.22765 0.19183,0.32886 0.53336,0.68575 0.94628,1.49437 1.56206,2.11014"
       style="fill:#328c01;fill-opacity:1;fill-rule:nonzero;stroke:none" />
    <path
       d="m 98.633171,87.151549 c 0.516966,0.379491 1.157376,0.787211 1.969649,1.196656 0.73498,0.370829 1.44538,0.662124 2.16065,0.947672 0.64235,0.25635 1.17337,0.464623 1.64461,0.690586 0.31632,0.151491 0.57735,0.298503 0.7903,0.444913 0.10278,0.07056 0.19913,0.14399 0.29028,0.221835 0.006,0.0051 0.012,0.01029 0.018,0.01551 0.004,0.0038 0.009,0.0076 0.0132,0.0114 0.44227,0.380563 0.92233,0.832865 1.46684,1.395497 0.57339,0.591875 1.08619,1.164773 1.80807,1.963097 0.60171,0.665314 1.36137,1.498932 2.18657,2.300214 0.62857,0.610909 1.34492,1.251962 2.1467,1.868747 0.3764,0.289889 0.77528,0.576932 1.19488,0.856459 l -0.0448,-0.03021 c -0.30795,-0.210355 -0.54542,-0.445197 -0.72425,-0.668818 -0.19365,-0.242338 -0.23579,-0.350957 -0.18488,-0.258006 0.021,0.03845 0.26205,0.502329 0.5694,0.932215 l -0.006,-0.0086 c 0.27251,0.382997 0.63299,0.802105 1.10341,1.191945 0.24279,0.20168 0.46461,0.35237 0.62,0.45218 0.51955,0.33531 1.01864,0.58202 1.42184,0.76419 0.53983,0.24315 1.06139,0.43848 1.44392,0.5817 0.52604,0.19682 0.84661,0.31471 1.15243,0.44998 0.19755,0.0876 0.29022,0.14069 0.32656,0.16378 0.0113,0.007 0.002,0.002 -0.0243,-0.0179 -0.009,-0.007 -0.0184,-0.0141 -0.0275,-0.0212 -0.29004,-0.22471 -0.45584,-0.43261 -0.51176,-0.50612 -0.081,-0.1065 -0.011,-0.006 0.19184,0.30636 0.1444,0.22245 0.43008,0.65307 0.84432,1.09531 0.16491,0.17598 0.35343,0.35788 0.56857,0.53713 1.54699,1.28891 2.94268,2.43458 4.34021,3.65207 1.24846,1.08748 2.40013,2.1478 3.46565,3.23307 0.87654,0.89278 1.67294,1.78079 2.39116,2.6786 0.44009,0.54929 0.88888,1.01066 1.27477,1.38111 0.55756,0.53403 1.11024,0.99853 1.59595,1.3886 0.72292,0.57957 1.44093,1.10763 2.06529,1.55779 1.42349,1.02535 2.70726,1.9009 3.81616,2.72014 0.62802,0.46451 1.13642,0.86054 1.58979,1.24239 0.36893,0.31113 0.63961,0.5616 0.85381,0.77567 a 4.6506985,4.6506985 90 0 0 6.57498,-6.57918 c -0.42607,-0.42579 -0.89412,-0.85305 -1.43461,-1.30886 -0.65214,-0.54926 -1.32577,-1.0704 -2.05491,-1.60968 -1.29279,-0.95512 -2.62626,-1.86393 -3.90714,-2.78655 -0.57677,-0.41585 -1.14585,-0.83637 -1.68222,-1.26639 -0.36438,-0.29263 -0.69128,-0.57155 -0.97946,-0.84756 -0.20369,-0.19554 -0.34829,-0.35202 -0.4513,-0.48058 -0.94149,-1.17692 -1.95292,-2.30007 -3.01509,-3.38192 -1.28678,-1.31064 -2.62866,-2.5415 -3.99327,-3.73015 -1.49849,-1.305448 -3.01683,-2.552401 -4.49579,-3.78462 0.10931,0.09107 0.19711,0.176812 0.26519,0.249466 0.17651,0.188432 0.21611,0.271206 0.16969,0.199687 -0.0528,-0.08128 -0.22239,-0.389096 -0.5905,-0.873092 -0.25444,-0.334455 -0.64352,-0.788527 -1.19476,-1.215591 -0.009,-0.0071 -0.0183,-0.01414 -0.0275,-0.02115 -0.221,-0.168591 -0.43289,-0.312616 -0.62387,-0.43431 -0.56636,-0.35988 -1.10877,-0.623894 -1.55382,-0.821206 -0.6183,-0.273478 -1.24538,-0.501939 -1.65813,-0.656372 -0.40132,-0.150256 -0.65652,-0.248625 -0.87952,-0.34907 -0.14943,-0.06751 -0.21477,-0.108411 -0.20255,-0.100504 l -0.0203,-0.01304 c 0.0391,0.02499 0.15,0.09751 0.29042,0.213355 0.24735,0.203424 0.42292,0.41277 0.53738,0.572854 0.0967,0.135903 0.16522,0.272007 0.0207,0.0078 -0.0906,-0.165341 -0.33684,-0.620377 -0.71506,-1.091469 l 0.007,0.0083 c -0.34583,-0.432785 -0.77511,-0.849219 -1.29502,-1.204353 -0.0149,-0.01016 -0.0298,-0.02023 -0.0448,-0.03021 -0.23796,-0.158525 -0.46404,-0.321226 -0.67833,-0.486261 -0.46096,-0.354607 -0.90582,-0.748643 -1.33891,-1.169563 -0.58817,-0.571121 -1.16868,-1.203678 -1.76892,-1.867367 -0.67449,-0.745911 -1.3147,-1.461705 -2.02469,-2.194581 -0.70974,-0.733361 -1.39323,-1.382528 -2.07611,-1.970495 -0.0213,-0.01847 -0.0426,-0.03672 -0.0637,-0.05475 -0.35506,-0.303228 -0.71235,-0.573951 -1.06369,-0.815159 -0.71767,-0.493425 -1.42677,-0.873901 -2.03775,-1.166507 -0.82099,-0.393672 -1.70456,-0.73709 -2.21612,-0.941241 -0.6807,-0.271747 -1.07071,-0.437612 -1.42046,-0.614075 -0.34033,-0.17155 -0.54118,-0.30694 -0.65383,-0.389636 a 4.6506985,4.6506985 90 0 0 -5.504119,7.498046 z"
       id="path-1-4"
       inkscape:path-effect="#path-effect39;#path-effect40"
       inkscape:original-d="m 101.38523,83.402526 c 2.18862,1.605359 4.94275,1.844854 7.13107,3.720558 3.16042,2.708935 4.9408,5.77424 8.37125,8.061211 0.59405,0.396033 0.59371,1.119247 1.24019,1.550233 1.27779,0.851863 3.35803,1.200822 4.6507,2.170326 0.5294,0.397053 0.73181,1.126586 1.24019,1.550236 3.72707,3.10589 7.70531,6.29864 10.85163,10.23153 2.16618,2.70773 7.88809,5.71777 10.85162,8.68131"
       style="fill:#328c01;fill-opacity:1;fill-rule:nonzero;stroke:none" />
    <path
       style="fill:#328c01;fill-opacity:1;stroke:none"
       d="m 124.94877,133.00998 -1.24019,-2.17033"
       id="path46" />
    <path
       style="fill:#328c01;fill-opacity:1"
       d="m 126.93766,135.7071 14.68881,-13.3734 6.35785,7.67326 -8.76944,9.64639 z"
       id="path48" />
    <path
       style="fill:#328c01;fill-opacity:1"
       d="m 132.41856,134.61092 -23.89673,-22.14284 -0.87694,5.70014 17.53888,22.14284 z"
       id="path49" />
    <path
       style="fill:#328c01;fill-opacity:1"
       d="M 140.09182,126.27995 97.12156,85.063579 113.12579,92.517604 141.188,124.52606 Z"
       id="path50" />
    <path
       style="fill:#328c01;fill-opacity:1"
       d="m 92.298368,91.202187 c 41.435612,44.724153 41.435612,44.724153 41.435612,44.724153 0,0 15.34652,27.18526 -9.86562,-1.31542 C 98.656212,106.11024 98.656212,106.11024 98.656212,106.11024 Z"
       id="path51" />
    <path
       style="fill:#328c01;fill-opacity:1"
       d="M 94.709964,89.229063 C 110.93343,113.34503 110.93343,113.34503 110.93343,113.34503 L 99.971629,107.20642 Z"
       id="path52" />
    <text
       xml:space="preserve"
       style="font-size:14.6667px;fill:#328c01;fill-opacity:1;stroke:none"
       id="text52"
       transform="matrix(0.99940103,0,0,0.87472097,1.8909251,-0.28217041)"><textPath
         xlink:href="#path53"
         id="textPath53"
         style="font-size:14.6667px;fill:#f60101;fill-opacity:1">INSTITUCION EDUCATIVA ATANASIO GIRARDOT</textPath></text>
    <path
       style="fill:none;fill-opacity:1;stroke:none;stroke-opacity:1"
       d="m 62.009313,41.546239 c 24.704519,-6.93867 51.363407,-6.765055 75.975457,0.494786 24.61205,7.25984 47.09742,21.582354 64.08131,40.817893 16.98389,19.235542 28.41119,43.321692 32.5668,68.643412 4.15561,25.32172 1.02605,51.79684 -8.91898,75.45175 -1.00708,2.3954 -2.09916,4.79046 -3.72056,6.82103 -0.73111,0.91561 -1.56476,1.74926 -2.48037,2.48037"
       id="path53"
       inkscape:path-effect="#path-effect53"
       inkscape:original-d="M 62.009313,41.546239 C 116.37081,103.55555 171.1457,165.15147 225.7139,226.95408 c 54.56819,61.80262 -2.48037,4.54735 -3.72056,6.82103 -1.24019,2.27367 -1.65358,1.65358 -2.48037,2.48037"
       transform="matrix(1.0671697,0,0,1.2953383,-12.748,-15.827184)" />
    <path
       style="fill:#000000;fill-opacity:1;stroke:none;stroke-opacity:1"
       d="m 219.99422,59.586526 c 0.15529,-0.374528 0.46588,-1.123586 0.4476,-1.76303 -0.0183,-0.639443 -0.36539,-1.169254 -0.85867,-1.443299 -0.49329,-0.274044 -1.13272,-0.292314 -2.15584,0.538972 -1.02311,0.831286 -2.42985,2.512065 -3.58084,3.352469 -1.151,0.840404 -2.0462,0.840404 -3.1698,0.886079 -1.12359,0.04568 -2.47552,0.137021 -3.84576,0.666851 -1.37024,0.52983 -2.75871,1.498105 -3.3616,2.283706 -0.6029,0.785601 -0.42021,1.388487 0.51156,1.278862 0.93177,-0.109625 2.61255,-0.931745 3.74527,-1.178382 1.13273,-0.246637 1.71735,0.08221 1.37021,0.922629 -0.34714,0.840417 -1.62599,2.192344 -2.2837,3.197183 -0.65771,1.004838 -0.69424,1.662536 -0.57549,2.13755 0.11876,0.475014 0.3928,0.767324 1.04138,0.87694 0.64858,0.109617 1.67166,0.03654 2.6765,-0.557235 1.00485,-0.593776 1.99139,-1.708204 2.57602,-2.000513 0.58463,-0.292309 0.76732,0.237502 0.73078,1.242348 -0.0365,1.004846 -0.29231,2.48466 -0.39279,3.717872 -0.10048,1.233212 -0.0457,2.219755 0.2101,2.740441 0.25578,0.520686 0.71252,0.575494 1.08705,0.173553 0.37453,-0.401942 0.66684,-1.2606 0.90434,-2.448143 0.23751,-1.187543 0.4202,-2.703897 0.53896,-4.202024 0.11875,-1.498127 0.17356,-2.97794 0.84042,-4.558283 0.66685,-1.580343 1.9457,-3.261118 2.61255,-4.192873 0.66684,-0.931754 0.72165,-1.11445 0.74906,-1.205798 0.0274,-0.09135 0.0274,-0.09135 0.18269,-0.465875 z"
       id="path54"
       inkscape:path-effect="#path-effect54"
       inkscape:original-d="m 219.83893,59.961054 c 0.31058,-0.749057 0.62117,-1.498113 0.93175,-2.24717 -0.34713,-0.529831 -0.69425,-1.05964 -1.04137,-1.589461 -0.63945,-0.01827 -1.27888,-0.03654 -1.91832,-0.05481 -1.40679,1.680843 -2.81353,3.361619 -4.22029,5.042429 -0.89523,0 -1.79043,0 -2.68564,0 -1.35198,0.09135 -2.70391,0.182696 -4.05587,0.274045 -1.38852,0.968312 -2.77699,1.936585 -4.16548,2.904877 0.1827,0.602911 0.36539,1.205798 0.54809,1.808697 1.68084,-0.822151 3.36162,-1.64427 5.04243,-2.466405 0.58464,0.328861 1.16926,0.657708 1.75388,0.986562 -1.2789,1.351983 -2.55775,2.703911 -3.83663,4.055867 -0.0365,0.657721 -0.0731,1.315416 -0.10961,1.973124 0.27405,0.292321 0.54809,0.584629 0.82213,0.876944 1.02312,-0.07308 2.0462,-0.146157 3.06931,-0.219236 0.98658,-1.114472 1.97312,-2.2289 2.95968,-3.343349 0.1827,0.529831 0.3654,1.05964 0.54809,1.589461 -0.25578,1.479873 -0.51155,2.959686 -0.76732,4.439529 0.0548,0.986582 0.10961,1.973125 0.16442,2.959687 0.45675,0.05481 0.91349,0.109618 1.37023,0.164427 0.29232,-0.858692 0.58463,-1.717349 0.87694,-2.576024 0.1827,-1.516412 0.3654,-3.032765 0.54809,-4.549147 0.0548,-1.479873 0.10962,-2.959686 0.16443,-4.43953 1.2789,-1.680843 2.55775,-3.361619 3.83663,-5.042428 0.0548,-0.182701 0.10962,-0.365394 0.16443,-0.54809 z"
       transform="translate(6.5002374,-11.024124)" />
    <path
       style="fill:#000000;fill-opacity:1;stroke:none;stroke-opacity:1"
       d="m 226.43428,36.050625 c 0.18269,-0.123319 0.54808,-0.369957 1.53677,-0.415632 0.98868,-0.04568 2.60056,0.109611 4.13525,0.55266 1.53468,0.443049 2.99201,1.173821 4.53371,2.653687 1.5417,1.479866 3.16767,3.708721 3.93499,5.252518 0.76733,1.543797 0.67598,2.40245 0.27404,2.850057 -0.40194,0.447607 -1.11444,0.484145 -1.61686,0.127881 -0.50242,-0.356265 -0.79473,-1.105291 -1.16013,-1.900039 -0.3654,-0.794748 -0.80385,-1.635119 -1.38849,-2.521215 -0.58464,-0.886097 -1.3154,-1.817811 -2.2289,-2.603426 -0.91351,-0.785614 -2.00964,-1.425024 -3.41643,-1.826964 -1.40679,-0.40194 -3.12411,-0.566364 -3.97365,-0.867819 -0.84954,-0.301454 -0.83128,-0.739915 -0.82214,-0.959151 0.009,-0.219237 0.009,-0.219237 0.19184,-0.342557 z"
       id="path55"
       inkscape:path-effect="#path-effect55"
       inkscape:original-d="m 226.25158,36.173945 c 0.36539,-0.246641 0.73078,-0.493277 1.09618,-0.739922 1.61197,0.155295 3.22385,0.310581 4.83583,0.465877 1.45739,0.730802 2.91472,1.461575 4.37208,2.19236 1.62604,2.228944 3.25201,4.457799 4.87801,6.686699 -0.0914,0.858691 -0.1827,1.717349 -0.27405,2.576023 -0.71253,0.03654 -1.42503,0.07308 -2.13755,0.109618 -0.29232,-0.74907 -0.58462,-1.498098 -0.87695,-2.247169 -0.43848,-0.840422 -0.87693,-1.680793 -1.31541,-2.521215 -0.7308,-0.931772 -1.46156,-1.863483 -2.19236,-2.795259 -1.09621,-0.639454 -2.19234,-1.278865 -3.28854,-1.918315 -1.71738,-0.16443 -3.4347,-0.328854 -5.15205,-0.493281 0.0183,-0.438481 0.0365,-0.876944 0.0548,-1.315416 z"
       sodipodi:nodetypes="scccccccccccss"
       transform="translate(2.8679307,-5.1932799)" />
    <path
       style="fill:#000000;fill-opacity:1;stroke:none;stroke-opacity:1"
       d="m 226.44118,36.046056 c 0.1896,-0.127888 0.56879,-0.383659 1.69909,-0.43179 1.1303,-0.04813 3.01158,0.111378 4.53936,0.558993 1.52778,0.447616 2.7019,1.183302 4.10199,2.665625 1.40009,1.482322 3.02606,3.711177 3.79338,5.254974 0.76733,1.543797 0.67598,2.40245 0.27404,2.850057 -0.40194,0.447607 -1.11444,0.484145 -1.61686,0.127881 -0.50242,-0.356265 -0.79473,-1.105291 -1.16013,-1.900039 -0.3654,-0.794748 -0.80385,-1.635119 -1.38849,-2.521215 -0.58464,-0.886097 -1.3154,-1.817811 -2.2289,-2.603426 -0.91351,-0.785614 -2.00964,-1.425024 -3.41643,-1.826964 -1.40679,-0.40194 -3.12411,-0.566364 -3.97365,-0.867819 -0.84954,-0.301454 -0.83128,-0.739915 -0.82214,-0.959151 0.009,-0.219237 0.009,-0.219237 0.19874,-0.347126 z"
       id="path55-0"
       inkscape:path-effect="#path-effect55-7"
       inkscape:original-d="m 226.25158,36.173945 c 0.3792,-0.255776 0.75839,-0.511546 1.13759,-0.767327 1.8814,0.159518 3.76268,0.319026 5.64408,0.478544 1.17416,0.735715 2.34828,1.4714 3.52242,2.207098 1.62604,2.228944 3.25201,4.457799 4.87801,6.686699 -0.0914,0.858691 -0.1827,1.717349 -0.27405,2.576023 -0.71253,0.03654 -1.42503,0.07308 -2.13755,0.109618 -0.29232,-0.74907 -0.58462,-1.498098 -0.87695,-2.247169 -0.43848,-0.840422 -0.87693,-1.680793 -1.31541,-2.521215 -0.7308,-0.931772 -1.46156,-1.863483 -2.19236,-2.795259 -1.09621,-0.639454 -2.19234,-1.278865 -3.28854,-1.918315 -1.71738,-0.16443 -3.4347,-0.328854 -5.15205,-0.493281 0.0183,-0.438481 0.0365,-0.876944 0.0548,-1.315416 z"
       sodipodi:nodetypes="scccccccccccss"
       transform="matrix(0.83461318,0,0,0.92975063,36.194898,1.8749747)" />
    <path
       style="fill:#000000;fill-opacity:1;stroke:none;stroke-opacity:1"
       d="m 226.77227,36.046057 c 0.52068,-0.127888 1.56203,-0.383658 2.52063,-0.501562 0.95859,-0.117903 1.83435,-0.09793 3.03104,0.349685 1.19669,0.447617 2.7142,1.322841 4.28598,2.874932 1.57179,1.552091 3.19776,3.780946 3.96508,5.324743 0.76733,1.543797 0.67598,2.40245 0.27404,2.850057 -0.40194,0.447607 -1.11444,0.484145 -1.61686,0.127881 -0.50242,-0.356265 -0.79473,-1.105291 -1.16013,-1.900039 -0.3654,-0.794748 -0.80385,-1.635119 -1.38849,-2.521215 -0.58464,-0.886097 -1.3154,-1.817811 -2.2289,-2.603426 -0.91351,-0.785614 -2.00964,-1.425024 -3.41643,-1.826964 -1.40679,-0.40194 -3.12411,-0.566364 -3.97365,-0.867819 -0.84954,-0.301454 -0.83128,-0.739915 -0.82214,-0.959151 0.009,-0.219237 0.009,-0.219234 0.52983,-0.347122 z"
       id="path55-0-8"
       inkscape:path-effect="#path-effect55-7-6"
       inkscape:original-d="m 226.25158,36.173945 c 1.04137,-0.255776 2.08272,-0.511547 3.12411,-0.767327 0.8758,0.01997 1.75156,0.03995 2.62737,0.05992 1.51757,0.875258 3.03508,1.750481 4.55261,2.625719 1.62604,2.228944 3.25201,4.457799 4.87801,6.686699 -0.0914,0.858691 -0.1827,1.717349 -0.27405,2.576023 -0.71253,0.03654 -1.42503,0.07308 -2.13755,0.109618 -0.29232,-0.74907 -0.58462,-1.498098 -0.87695,-2.247169 -0.43848,-0.840422 -0.87693,-1.680793 -1.31541,-2.521215 -0.7308,-0.931772 -1.46156,-1.863483 -2.19236,-2.795259 -1.09621,-0.639454 -2.19234,-1.278865 -3.28854,-1.918315 -1.71738,-0.16443 -3.4347,-0.328854 -5.15205,-0.493281 0.0183,-0.438481 0.0365,-0.876944 0.0548,-1.315416 z"
       sodipodi:nodetypes="scccccccccccss"
       transform="matrix(0.61777268,0,0,0.56913718,83.343902,19.681302)" />
  </g>
</svg>
